<svg id="Layer_1" data-name="Layer 1" xmlns="http://www.w3.org/2000/svg" xmlns:xlink="http://www.w3.org/1999/xlink" viewBox="0 0 483 185"><defs><style>.cls-1{opacity:0.4;}.cls-1,.cls-4,.cls-5,.cls-6,.cls-7,.cls-8{isolation:isolate;}.cls-2{fill:#fed64c;}.cls-3{fill:#f8ca3f;}.cls-4,.cls-5{opacity:0.38;}.cls-4{fill:url(#linear-gradient);}.cls-5{fill:url(#linear-gradient-2);}.cls-6,.cls-7,.cls-8{opacity:0.5;}.cls-6{fill:url(#linear-gradient-3);}.cls-7{fill:url(#linear-gradient-4);}.cls-8{fill:url(#linear-gradient-5);}.cls-9{opacity:0.64;}.cls-10{fill:#fff;}.cls-11{fill:#27292d;}.cls-12{fill:#ffe088;}.cls-13{fill:#ffae39;}.cls-14{fill:#dd6642;}.cls-15{fill:#454545;}</style><linearGradient id="linear-gradient" x1="105.08" y1="129.95" x2="107.82" y2="44.62" gradientTransform="translate(0 2)" gradientUnits="userSpaceOnUse"><stop offset="0" stop-color="#fed64c"/><stop offset="1" stop-color="#fff"/></linearGradient><linearGradient id="linear-gradient-2" x1="201.21" y1="-3.64" x2="203.94" y2="-88.98" gradientTransform="translate(-20.45 59) rotate(16.28)" xlink:href="#linear-gradient"/><linearGradient id="linear-gradient-3" x1="217.87" y1="205.61" x2="257.82" y2="83.47" gradientTransform="translate(-5.01 3.46) rotate(-27.8)" xlink:href="#linear-gradient"/><linearGradient id="linear-gradient-4" x1="346.9" y1="128.05" x2="330.4" y2="-1.19" gradientTransform="matrix(1, -0.06, 0.06, 1, -13.82, -3.01)" xlink:href="#linear-gradient"/><linearGradient id="linear-gradient-5" x1="411.68" y1="122.36" x2="393.36" y2="8.97" gradientTransform="matrix(1, -0.1, 0.1, 1, -11.13, 6.41)" xlink:href="#linear-gradient"/></defs><title>add-cookie-dark-mode</title><g id="Layer_2" data-name="Layer 2"><image class="cls-1" width="483" height="185" xlink:href="../../../AIDesign/Dialog/D5D620FD.png"/><path class="cls-2" d="M465,27.8H45a9.79,9.79,0,0,0-9,5.6,13.61,13.61,0,0,0-.5,3.6V162.9c3,1,43.2,15.2,109.4-7.1,5.7-1.9,11.3-3.6,16.9-5.1,35.2,6.8,90.7,14,149.3,8.6,41.1,14.3,106.5,13.9,142.8-2.1,11.3,2.8,20.6,6.1,20.6,6.1V37.5A9.36,9.36,0,0,0,465,27.8Z" transform="translate(-13.5 -10.8)"/><path class="cls-3" d="M469.5,28.6,123.2,141.8s121.1,36,236.4,10c0,0,39.7-1.7,74,1.6,16.7,1.6,41.3,10,41.3,10V37.5A9.86,9.86,0,0,0,469.5,28.6Z" transform="translate(-13.5 -10.8)"/><path class="cls-2" d="M474.5,142.4V34.4a9.77,9.77,0,0,0-9.5-6.6H45c-5.5,0-10.5,4.2-10.5,9.7V163c6,1.8,46.2,14.2,109.9-7.2,68.3-23,126.6-13.7,157.1,0C350.5,177.8,450.6,173.9,474.5,142.4Z" transform="translate(-13.5 -10.8)"/></g><g id="Layer_3" data-name="Layer 3"><path class="cls-4" d="M139.7,92.9a20.07,20.07,0,0,0-4.2.5,13.14,13.14,0,0,0-10.9-5.7,11.58,11.58,0,0,0-4.2.7,22.13,22.13,0,0,0-43.7,4.9V94a16.14,16.14,0,0,0-4.9-.7,16.4,16.4,0,0,0,0,32.8h67.8a16.6,16.6,0,0,0,.1-33.2Z" transform="translate(-13.5 -10.8)"/><path class="cls-5" d="M217.9,84.1a20.48,20.48,0,0,0-4.2-.7,12.9,12.9,0,0,0-8.9-8.5,12.1,12.1,0,0,0-4.2-.5,22.12,22.12,0,0,0-43.3-7.6c-.1.2-.1.5-.2.7a18.47,18.47,0,0,0-4.5-2.1A16.46,16.46,0,1,0,143.4,97l47.2,13.8,8.8,2.6,9.1,2.7a16.68,16.68,0,0,0,9.4-32Z" transform="translate(-13.5 -10.8)"/><circle class="cls-6" cx="284" cy="86" r="42"/><circle class="cls-7" cx="339.5" cy="99.1" r="38.5"/><circle class="cls-8" cx="409" cy="81" r="38"/></g><g id="Layer_4" data-name="Layer 4" class="cls-9"><path class="cls-10" d="M420.2,123.5c-.2.1-.2.4-.2.6l.5,3.2a.67.67,0,0,1-.9.7l-2.8-1.5a.64.64,0,0,0-.6,0l-2.8,1.5a.64.64,0,0,1-.9-.7l.1-.5.5-2.7a.73.73,0,0,0-.2-.6l-2.3-2.2a.63.63,0,0,1,.4-1.1l3.2-.5a.85.85,0,0,0,.5-.3l1.4-2.9a.59.59,0,0,1,1.1,0l1.4,2.9a.55.55,0,0,0,.5.3l1,.1,2.2.3a.69.69,0,0,1,.4,1.1Z" transform="translate(-13.5 -10.8)"/><path class="cls-10" d="M424.7,124.2a.76.76,0,0,1-.5-.2.67.67,0,0,1,0-1l2.3-2.3a.71.71,0,0,1,1,1l-2.3,2.3A.76.76,0,0,1,424.7,124.2Z" transform="translate(-13.5 -10.8)"/><path class="cls-10" d="M434.3,110.1a.76.76,0,0,1-.5-.2.67.67,0,0,1,0-1l3.3-3.3a.67.67,0,0,1,1,0c.2.3.3.8,0,1l-3.3,3.3A.76.76,0,0,1,434.3,110.1Z" transform="translate(-13.5 -10.8)"/><path class="cls-10" d="M424.7,119.7a.76.76,0,0,1-.5-.2.67.67,0,0,1,0-1l7.3-7.3a.71.71,0,0,1,1,1l-7.3,7.3A.76.76,0,0,1,424.7,119.7Z" transform="translate(-13.5 -10.8)"/><path class="cls-10" d="M422.7,115.3a.76.76,0,0,1-.5-.2.67.67,0,0,1,0-1l3.4-3.4a.71.71,0,0,1,1,1l-3.4,3.4C423.1,115.3,422.9,115.3,422.7,115.3Z" transform="translate(-13.5 -10.8)"/><path class="cls-10" d="M137.4,86.4a1.42,1.42,0,0,1-.6-.2.78.78,0,0,1,0-1.1l11.8-11.8a.78.78,0,0,1,1.1,1.1L137.9,86.2C137.8,86.4,137.6,86.4,137.4,86.4Z" transform="translate(-13.5 -10.8)"/><path class="cls-10" d="M114,109.8a1.42,1.42,0,0,1-.6-.2.78.78,0,0,1,0-1.1L125,96.9a.78.78,0,0,1,1.1,1.1l-11.6,11.6A.76.76,0,0,1,114,109.8Z" transform="translate(-13.5 -10.8)"/><path class="cls-10" d="M118.4,110.6a1.42,1.42,0,0,1-.6-.2.78.78,0,0,1,0-1.1l5.3-5.3a.78.78,0,1,1,1.1,1.1l-5.3,5.3A.76.76,0,0,1,118.4,110.6Z" transform="translate(-13.5 -10.8)"/><path class="cls-10" d="M133.5,91.4c-.1.1-.2.3-.1.4l.4,2.3a.46.46,0,0,1-.7.5L131,93.5a.3.3,0,0,0-.4,0l-2.1,1.1c-.3.2-.7-.1-.7-.5l.1-.3.3-2c0-.2,0-.3-.1-.4l-1.7-1.6c-.3-.3-.1-.7.3-.8l2.3-.3c.2,0,.3-.1.4-.3l1-2.1c.2-.3.7-.3.8,0l1,2.1a1.38,1.38,0,0,0,.4.3l.7.1,1.6.2a.5.5,0,0,1,.3.8Z" transform="translate(-13.5 -10.8)"/><path class="cls-10" d="M144.4,83a1.42,1.42,0,0,1-.6-.2.78.78,0,0,1,0-1.1l2.2-2.2a.78.78,0,1,1,1.1,1.1l-2.2,2.2A.76.76,0,0,1,144.4,83Z" transform="translate(-13.5 -10.8)"/><path class="cls-10" d="M72.9,65.9h0a.86.86,0,0,1-.8-.8v-.3a.8.8,0,0,1,1.6,0v.3A.74.74,0,0,1,72.9,65.9Z" transform="translate(-13.5 -10.8)"/><path class="cls-10" d="M72.9,68.8h0a.86.86,0,0,1-.8-.8v-.3a.86.86,0,0,1,.8-.8h0a.86.86,0,0,1,.8.8V68A.79.79,0,0,1,72.9,68.8Z" transform="translate(-13.5 -10.8)"/><path class="cls-10" d="M74.5,67.2h-.3a.8.8,0,0,1,0-1.6h.3a.86.86,0,0,1,.8.8A.79.79,0,0,1,74.5,67.2Z" transform="translate(-13.5 -10.8)"/><path class="cls-10" d="M71.6,67.2h-.3a.8.8,0,0,1,0-1.6h.3a.86.86,0,0,1,.8.8A.74.74,0,0,1,71.6,67.2Z" transform="translate(-13.5 -10.8)"/><path class="cls-10" d="M199.9,89.4h0a.86.86,0,0,1-.8-.8v-.3a.8.8,0,1,1,1.6,0v.3A.74.74,0,0,1,199.9,89.4Z" transform="translate(-13.5 -10.8)"/><path class="cls-10" d="M199.9,92.3h0a.86.86,0,0,1-.8-.8v-.3a.8.8,0,1,1,1.6,0v.3A.79.79,0,0,1,199.9,92.3Z" transform="translate(-13.5 -10.8)"/><path class="cls-10" d="M201.5,90.7h-.3a.8.8,0,1,1,0-1.6h.3a.86.86,0,0,1,.8.8A.79.79,0,0,1,201.5,90.7Z" transform="translate(-13.5 -10.8)"/><path class="cls-10" d="M198.6,90.7h-.3a.8.8,0,0,1,0-1.6h.3a.86.86,0,0,1,.8.8A.74.74,0,0,1,198.6,90.7Z" transform="translate(-13.5 -10.8)"/><path class="cls-10" d="M73.7,138.3h0a.86.86,0,0,1-.8-.8v-.3a.8.8,0,1,1,1.6,0v.3A.74.74,0,0,1,73.7,138.3Z" transform="translate(-13.5 -10.8)"/><path class="cls-10" d="M73.7,141.2h0a.86.86,0,0,1-.8-.8v-.3a.8.8,0,1,1,1.6,0v.3A.79.79,0,0,1,73.7,141.2Z" transform="translate(-13.5 -10.8)"/><path class="cls-10" d="M75.3,139.6H75a.8.8,0,1,1,0-1.6h.3a.86.86,0,0,1,.8.8A.79.79,0,0,1,75.3,139.6Z" transform="translate(-13.5 -10.8)"/><path class="cls-10" d="M72.4,139.6h-.3a.8.8,0,1,1,0-1.6h.3a.86.86,0,0,1,.8.8A.74.74,0,0,1,72.4,139.6Z" transform="translate(-13.5 -10.8)"/><path class="cls-10" d="M363.5,136.8h0a.86.86,0,0,1-.8-.8v-.3a.8.8,0,1,1,1.6,0v.3A.86.86,0,0,1,363.5,136.8Z" transform="translate(-13.5 -10.8)"/><path class="cls-10" d="M363.4,139.7h0a.86.86,0,0,1-.8-.8v-.3a.8.8,0,1,1,1.6,0v.3C364.3,139.3,363.9,139.7,363.4,139.7Z" transform="translate(-13.5 -10.8)"/><path class="cls-10" d="M365,138.1h-.3a.8.8,0,1,1,0-1.6h.3a.86.86,0,0,1,.8.8A.79.79,0,0,1,365,138.1Z" transform="translate(-13.5 -10.8)"/><path class="cls-10" d="M362.2,138.1h-.3a.8.8,0,0,1,0-1.6h.3a.8.8,0,1,1,0,1.6Z" transform="translate(-13.5 -10.8)"/><path class="cls-10" d="M414.5,69.3h0a.86.86,0,0,1-.8-.8v-.3a.8.8,0,0,1,1.6,0v.3A.74.74,0,0,1,414.5,69.3Z" transform="translate(-13.5 -10.8)"/><path class="cls-10" d="M414.5,72.2h0a.86.86,0,0,1-.8-.8v-.3a.8.8,0,0,1,1.6,0v.3A.86.86,0,0,1,414.5,72.2Z" transform="translate(-13.5 -10.8)"/><path class="cls-10" d="M416.1,70.6h-.3a.8.8,0,0,1,0-1.6h.3a.86.86,0,0,1,.8.8A.79.79,0,0,1,416.1,70.6Z" transform="translate(-13.5 -10.8)"/><path class="cls-10" d="M413.2,70.6h-.3a.8.8,0,0,1,0-1.6h.3a.86.86,0,0,1,.8.8A.74.74,0,0,1,413.2,70.6Z" transform="translate(-13.5 -10.8)"/><path class="cls-10" d="M361.1,83.3h0a.86.86,0,0,1-.8-.8v-.3a.8.8,0,1,1,1.6,0v.3A.86.86,0,0,1,361.1,83.3Z" transform="translate(-13.5 -10.8)"/><path class="cls-10" d="M361.1,86.2h0a.86.86,0,0,1-.8-.8v-.3a.8.8,0,1,1,1.6,0v.3A.86.86,0,0,1,361.1,86.2Z" transform="translate(-13.5 -10.8)"/><path class="cls-10" d="M362.6,84.6h-.3a.8.8,0,0,1,0-1.6h.3a.86.86,0,0,1,.8.8C363.5,84.2,363.1,84.6,362.6,84.6Z" transform="translate(-13.5 -10.8)"/><path class="cls-10" d="M359.8,84.6h-.3a.8.8,0,0,1,0-1.6h.3a.8.8,0,1,1,0,1.6Z" transform="translate(-13.5 -10.8)"/><path class="cls-10" d="M271.3,115.1a.76.76,0,0,0-.2.5l.5,2.6a.57.57,0,0,1-.8.6l-2.4-1.3a.45.45,0,0,0-.5,0l-2.4,1.3a.55.55,0,0,1-.8-.6l.1-.4.4-2.3c0-.2,0-.4-.2-.5l-1.9-1.9a.55.55,0,0,1,.3-.9l2.7-.4c.2,0,.3-.1.4-.3l1.2-2.4a.57.57,0,0,1,1,0l1.2,2.4c.1.2.2.3.4.3l.8.1,1.8.3a.55.55,0,0,1,.3.9Z" transform="translate(-13.5 -10.8)"/><path class="cls-10" d="M278,98.2a1.42,1.42,0,0,1-.6-.2.78.78,0,0,1,0-1.1l15-15a.78.78,0,0,1,1.1,1.1l-15,15A.76.76,0,0,1,278,98.2Z" transform="translate(-13.5 -10.8)"/><path class="cls-10" d="M271.4,104.8a1.42,1.42,0,0,1-.6-.2.78.78,0,0,1,0-1.1l3.8-3.8a.78.78,0,0,1,1.1,1.1l-3.8,3.8A.76.76,0,0,1,271.4,104.8Z" transform="translate(-13.5 -10.8)"/><path class="cls-10" d="M274.4,108.6a1.42,1.42,0,0,1-.6-.2.78.78,0,0,1,0-1.1l4.6-4.6a.78.78,0,0,1,1.1,1.1l-4.6,4.6C274.9,108.5,274.6,108.6,274.4,108.6Z" transform="translate(-13.5 -10.8)"/><path class="cls-10" d="M282,101.1a1.42,1.42,0,0,1-.6-.2.78.78,0,0,1,0-1.1l1.8-1.8a.78.78,0,0,1,1.1,1.1l-1.8,1.8A.76.76,0,0,1,282,101.1Z" transform="translate(-13.5 -10.8)"/></g><g id="Layer_5" data-name="Layer 5"><path class="cls-11" d="M290.81,135.12c-3.2-.27-5-2.07-5.68-5.68a8.73,8.73,0,0,0-9.44-7.22,8.93,8.93,0,0,1-7.34-2.93l-.08-.08a9.08,9.08,0,0,1-2.27-5.93,9.29,9.29,0,0,0-8.7-9.36c-8.67-.84-15.81-.15-21.85,2.1l-.1,0-.34.12-.06,0-1,.36c-.38.15-.76.33-1.14.52l0,0-.71.33-.06,0-.33.17-.52.27h-.42l-1.33,1h-.17l-1.33,1c-.18.13-.34.27-.5.4l-.58.31-.17.17-.2.1-.67.66a7.64,7.64,0,0,0-.94.95l-.08.07c-.39.4-.79.8-1.21,1.32a11.2,11.2,0,0,0-1.1,1.31l-.07.1-.19.25-.35.49a2.14,2.14,0,0,1-.13.19,5.82,5.82,0,0,0-1,1.33c-.2.31-.37.59-.51.83l-.22.25-.36.73c-.06.12-.12.21-.17.31s-.17.29-.25.45l-.06.1a5.75,5.75,0,0,0-.33.66l-.29.62-.2.2-.38,1c-.14.36-.28.72-.42,1l-.53,1.06v.47c-.07.18-.14.39-.22.63,0,.06,0,.1-.05.14l-.15.3-.13.53a2.68,2.68,0,0,1-.07.27l-.48,1v.46s0,.06,0,.09l-.06.22a11.84,11.84,0,0,0-.3,1.21,3.33,3.33,0,0,0-.12.5,10.47,10.47,0,0,0-.27,1.48c0,.14-.06.3-.08.47a10.32,10.32,0,0,0-.25,2q-.09.5-.15,1.14l-.15.29v1.18a9.75,9.75,0,0,0-.09,1.31v.47a2.66,2.66,0,0,1,0,.28c0,.42-.07.83-.07,1.25v.2c0,.14,0,.27,0,.4,0,.42-.07.84-.07,1.3v4c0,11,3.76,20.49,10.87,27.43s17.47,10.88,29,10.88h1.2c.62,0,1.24,0,1.85-.06.44,0,.88,0,1.29,0a9.49,9.49,0,0,0,1.6-.11c.71,0,1.35-.12,1.95-.2.31,0,.58-.06.8-.09l.45,0,.68-.06c.35,0,.7-.06,1.07-.11s.51,0,.71-.08l.29,0c.54-.06,1.09-.15,1.63-.24.36-.06.72-.12,1.08-.16l.52-.09,1-.19c.57-.1,1.12-.2,1.66-.34l.22-.06a5,5,0,0,0,.53-.12c.47-.1.86-.21,1.15-.29l.27-.08.48-.12h.33l.87-.34.33-.1c.25-.08.5-.15.74-.24h.3l.94-.4c.21-.1.43-.17.64-.25.45-.17,1-.36,1.52-.63,13.1-5.91,19.47-16.91,19.47-33.62C299.6,137.72,294.83,135.47,290.81,135.12Z" transform="translate(-13.5 -10.8)"/><path class="cls-12" d="M280.2,130.2a3.77,3.77,0,0,0-4.1-3.1A14,14,0,0,1,261,113.3a4.38,4.38,0,0,0-4.1-4.5c-31.7-3.1-37.6,16.9-37.6,37.6s15.2,33.8,36,33.3c31-.6,39.2-14.8,39.2-33.3,0-5.3-1.9-6.2-4.2-6.4C286.8,139.7,281.5,137.8,280.2,130.2Z" transform="translate(-13.5 -10.8)"/><path class="cls-2" d="M248.7,149a25.21,25.21,0,0,1-13.2-20.4,58.53,58.53,0,0,1,1.7-18c-14.6,5.4-17.9,20.4-17.9,35.8,0,20.8,15.2,33.8,36,33.3,9.7-.2,17.2-1.7,22.8-4.3A97.68,97.68,0,0,0,248.7,149Z" transform="translate(-13.5 -10.8)"/><path class="cls-13" d="M244.5,127.6l-1.8-1.8a4.23,4.23,0,0,1,0-5.9l1.8-1.8a4.23,4.23,0,0,1,5.9,0l1.8,1.8a4.23,4.23,0,0,1,0,5.9l-1.8,1.8A4.23,4.23,0,0,1,244.5,127.6Z" transform="translate(-13.5 -10.8)"/><path class="cls-14" d="M246.2,170.1l-1.6-1.6a3.74,3.74,0,0,1,0-5.2l1.6-1.6a3.74,3.74,0,0,1,5.2,0l1.6,1.6a3.74,3.74,0,0,1,0,5.2l-1.6,1.6A3.74,3.74,0,0,1,246.2,170.1Z" transform="translate(-13.5 -10.8)"/><path class="cls-14" d="M227.3,144.3,226,143a3,3,0,0,1,0-4.3l1.3-1.3a3,3,0,0,1,4.3,0l1.3,1.3a3,3,0,0,1,0,4.3l-1.3,1.3A3,3,0,0,1,227.3,144.3Z" transform="translate(-13.5 -10.8)"/><path class="cls-13" d="M274.7,157.8l-1.8-1.8a4.23,4.23,0,0,1,0-5.9l1.8-1.8a4.23,4.23,0,0,1,5.9,0l1.8,1.8a4.23,4.23,0,0,1,0,5.9l-1.8,1.8A4.23,4.23,0,0,1,274.7,157.8Z" transform="translate(-13.5 -10.8)"/><path class="cls-15" d="M269.1,141.4a1.11,1.11,0,0,1-1.1-1.1v-1.9a1.1,1.1,0,1,1,2.2,0v1.9A1,1,0,0,1,269.1,141.4Z" transform="translate(-13.5 -10.8)"/><path class="cls-15" d="M244.7,141.4a1.11,1.11,0,0,1-1.1-1.1v-1.9a1.1,1.1,0,0,1,2.2,0v1.9A1.11,1.11,0,0,1,244.7,141.4Z" transform="translate(-13.5 -10.8)"/><path class="cls-15" d="M260.1,142.5a3.42,3.42,0,0,0-3.2-3.7,3.48,3.48,0,0,0-3.2,3.7,3.23,3.23,0,1,0,6.4,0Z" transform="translate(-13.5 -10.8)"/></g></svg>