<?xml version="1.0" encoding="utf-8"?>
<!-- Generator: Adobe Illustrator 23.0.0, SVG Export Plug-In . SVG Version: 6.00 Build 0)  -->
<svg version="1.1" id="Layer_1" xmlns="http://www.w3.org/2000/svg" xmlns:xlink="http://www.w3.org/1999/xlink" x="0px" y="0px"
	 viewBox="0 0 440.4 156.8" style="enable-background:new 0 0 440.4 156.8;" xml:space="preserve">
<style type="text/css">
	.st0{fill:#FED64C;}
	.st1{fill:#F8CA3F;}
	.st2{opacity:0.38;fill:url(#SVGID_1_);enable-background:new    ;}
	.st3{opacity:0.38;fill:url(#SVGID_2_);enable-background:new    ;}
	.st4{opacity:0.5;fill:url(#SVGID_3_);enable-background:new    ;}
	.st5{opacity:0.5;fill:url(#SVGID_4_);enable-background:new    ;}
	.st6{opacity:0.5;fill:url(#SVGID_5_);enable-background:new    ;}
	.st7{opacity:0.64;}
	.st8{fill:#FFFFFF;}
	.st9{fill:#27292D;}
	.st10{fill:#FFE088;}
	.st11{fill:#FFAE39;}
	.st12{fill:#DD6642;}
	.st13{fill:#454545;}
</style>
<g>
	
		<image style="overflow:visible;opacity:0.4;enable-background:new    ;" width="440" height="147" xlink:href="95C46BA5.png"  transform="matrix(1 0 0 1 0 10.0034)">
	</image>
	<path class="st0" d="M430.5,0h-420c-3.8-0.1-7.4,2.1-9,5.6C1.2,6.8,1,8,1,9.2v125.9c3,1,43.2,15.2,109.4-7.1
		c5.7-1.9,11.3-3.6,16.9-5.1c35.2,6.8,90.7,14,149.3,8.6c41.1,14.3,106.5,13.9,142.8-2.1c11.3,2.8,20.6,6.1,20.6,6.1V9.7
		c0.2-5.2-3.8-9.5-9-9.7C430.8,0,430.7,0,430.5,0z"/>
	<path class="st1" d="M435,0.8L88.7,114c0,0,121.1,36,236.4,10c0,0,39.7-1.7,74,1.6c16.7,1.6,41.3,10,41.3,10V9.7
		C440.4,6,438.3,2.5,435,0.8z"/>
	<path class="st0" d="M440,114.6V6.6c-1.4-4-5.2-6.7-9.5-6.6h-420C5,0,0,4.2,0,9.7v125.5c6,1.8,46.2,14.2,109.9-7.2
		c68.3-23,126.6-13.7,157.1,0C316,150,416.1,146.1,440,114.6z"/>
</g>
<g id="Layer_3">
	
		<linearGradient id="SVGID_1_" gradientUnits="userSpaceOnUse" x1="84.1074" y1="39.0525" x2="86.8474" y2="124.3825" gradientTransform="matrix(1 0 0 -1 -13.5 143.2068)">
		<stop  offset="0" style="stop-color:#FED64C"/>
		<stop  offset="1" style="stop-color:#FFFFFF"/>
	</linearGradient>
	<path class="st2" d="M105.2,65.1c-1.4,0-2.8,0.2-4.2,0.5c-2.5-3.6-6.5-5.7-10.9-5.7c-1.4,0-2.9,0.2-4.2,0.7
		C83.2,48.7,71.3,41.2,59.4,44c-10,2.3-17.2,11.2-17.2,21.5v0.7c-1.6-0.5-3.2-0.7-4.9-0.7c-9.1,0-16.4,7.3-16.4,16.4
		s7.3,16.4,16.4,16.4h67.8c9.2,0,16.6-7.4,16.7-16.5C121.8,72.6,114.4,65.1,105.2,65.1L105.2,65.1z"/>
	
		<linearGradient id="SVGID_2_" gradientUnits="userSpaceOnUse" x1="249.997" y1="296.5352" x2="252.727" y2="381.8753" gradientTransform="matrix(0.9599 0.2803 0.2803 -0.9599 -184.1894 298.5796)">
		<stop  offset="0" style="stop-color:#FED64C"/>
		<stop  offset="1" style="stop-color:#FFFFFF"/>
	</linearGradient>
	<path class="st3" d="M183.4,56.3c-1.4-0.4-2.8-0.6-4.2-0.7c-1.3-4.2-4.7-7.4-8.9-8.5c-1.4-0.4-2.8-0.6-4.2-0.5
		c0.8-12.2-8.5-22.7-20.7-23.4c-10.3-0.6-19.7,5.9-22.6,15.8c-0.1,0.2-0.1,0.5-0.2,0.7c-1.4-0.9-2.9-1.6-4.5-2.1
		c-8.7-2.7-17.9,2.1-20.6,10.8C94.7,57,99.5,66.3,108.2,69c0.2,0.1,0.5,0.1,0.7,0.2L156.1,83l8.8,2.6l9.1,2.7
		c8.9,2.4,18.1-2.9,20.5-11.8C196.8,67.9,191.9,59,183.4,56.3z"/>
	
		<linearGradient id="SVGID_3_" gradientUnits="userSpaceOnUse" x1="7.7568" y1="-186.7962" x2="47.7068" y2="-64.6562" gradientTransform="matrix(0.8846 -0.4664 -0.4664 -0.8846 168.631 -94.889)">
		<stop  offset="0" style="stop-color:#FED64C"/>
		<stop  offset="1" style="stop-color:#FFFFFF"/>
	</linearGradient>
	<circle class="st4" cx="263" cy="69" r="42"/>
	
		<linearGradient id="SVGID_4_" gradientUnits="userSpaceOnUse" x1="305.8328" y1="18.2238" x2="289.3328" y2="147.4639" gradientTransform="matrix(1 -6.000000e-02 -6.000000e-02 -1 14.7402 123.8568)">
		<stop  offset="0" style="stop-color:#FED64C"/>
		<stop  offset="1" style="stop-color:#FFFFFF"/>
	</linearGradient>
	<circle class="st5" cx="318.5" cy="82.1" r="38.5"/>
	
		<linearGradient id="SVGID_5_" gradientUnits="userSpaceOnUse" x1="354.4155" y1="9.9656" x2="336.0955" y2="123.3556" gradientTransform="matrix(1 -0.1 -0.1 -1 36.4703 116.5168)">
		<stop  offset="0" style="stop-color:#FED64C"/>
		<stop  offset="1" style="stop-color:#FFFFFF"/>
	</linearGradient>
	<circle class="st6" cx="388" cy="64" r="38"/>
</g>
<g id="Layer_4" class="st7">
	<path class="st8" d="M385.7,95.7c-0.2,0.1-0.2,0.4-0.2,0.6l0.5,3.2c0,0.4-0.2,0.7-0.6,0.7c-0.1,0-0.2,0-0.3,0l-2.8-1.5
		c-0.2-0.1-0.4-0.1-0.6,0l-2.8,1.5c-0.3,0.1-0.7,0-0.9-0.3c-0.1-0.1-0.1-0.3,0-0.4l0.1-0.5l0.5-2.7c0-0.2,0-0.4-0.2-0.6l-2.3-2.2
		c-0.3-0.2-0.3-0.6-0.1-0.9c0.1-0.1,0.3-0.2,0.5-0.2l3.2-0.5c0.2,0,0.4-0.1,0.5-0.3l1.4-2.9c0.1-0.3,0.5-0.5,0.8-0.3
		c0.2,0.1,0.3,0.2,0.3,0.3l1.4,2.9c0.1,0.2,0.3,0.3,0.5,0.3l1,0.1l2.2,0.3c0.4,0.1,0.6,0.4,0.5,0.8c0,0.1-0.1,0.2-0.1,0.3
		L385.7,95.7z"/>
	<path class="st8" d="M390.2,96.4c-0.2,0-0.4-0.1-0.5-0.2c-0.3-0.2-0.3-0.7-0.1-0.9c0,0,0,0,0.1-0.1l2.3-2.3c0.3-0.3,0.7-0.2,1,0.1
		c0.2,0.3,0.2,0.6,0,0.9l-2.3,2.3C390.6,96.3,390.4,96.4,390.2,96.4z"/>
	<path class="st8" d="M399.8,82.3c-0.2,0-0.4-0.1-0.5-0.2c-0.3-0.2-0.3-0.7-0.1-0.9c0,0,0,0,0.1-0.1l3.3-3.3
		c0.2-0.3,0.7-0.3,0.9-0.1c0,0,0,0,0.1,0.1c0.2,0.3,0.3,0.8,0,1l-3.3,3.3C400.2,82.2,400,82.3,399.8,82.3z"/>
	<path class="st8" d="M390.2,91.9c-0.2,0-0.4-0.1-0.5-0.2c-0.3-0.2-0.3-0.7-0.1-0.9c0,0,0,0,0.1-0.1l7.3-7.3c0.3-0.3,0.7-0.2,1,0.1
		c0.2,0.3,0.2,0.6,0,0.9l-7.3,7.3C390.6,91.8,390.4,91.9,390.2,91.9z"/>
	<path class="st8" d="M388.2,87.5c-0.2,0-0.4-0.1-0.5-0.2c-0.3-0.2-0.3-0.7-0.1-0.9c0,0,0,0,0.1-0.1l3.4-3.4c0.3-0.3,0.7-0.2,1,0.1
		c0.2,0.3,0.2,0.6,0,0.9l-3.4,3.4C388.6,87.5,388.4,87.5,388.2,87.5z"/>
	<path class="st8" d="M102.9,58.6c-0.2,0-0.4-0.1-0.6-0.2c-0.3-0.3-0.3-0.8,0-1.1l11.8-11.8c0.3-0.3,0.8-0.2,1.1,0.1
		c0.3,0.3,0.3,0.7,0,1l-11.8,11.8C103.3,58.6,103.1,58.6,102.9,58.6z"/>
	<path class="st8" d="M79.5,82c-0.2,0-0.4-0.1-0.6-0.2c-0.3-0.3-0.3-0.8,0-1.1l11.6-11.6c0.3-0.3,0.8-0.2,1.1,0.1
		c0.3,0.3,0.3,0.7,0,1L80,81.8C79.9,81.9,79.7,82,79.5,82z"/>
	<path class="st8" d="M83.9,82.8c-0.2,0-0.4-0.1-0.6-0.2c-0.3-0.3-0.3-0.8,0-1.1l5.3-5.3c0.3-0.3,0.8-0.4,1.1-0.1s0.4,0.8,0.1,1.1
		c0,0-0.1,0.1-0.1,0.1l-5.3,5.3C84.3,82.7,84.1,82.8,83.9,82.8z"/>
	<path class="st8" d="M99,63.6c-0.1,0.1-0.2,0.3-0.1,0.4l0.4,2.3c0.1,0.2-0.1,0.5-0.3,0.6c-0.1,0-0.3,0-0.4-0.1l-2.1-1.1
		c-0.1-0.1-0.3-0.1-0.4,0L94,66.8c-0.3,0.2-0.7-0.1-0.7-0.5l0.1-0.3l0.3-2c0-0.2,0-0.3-0.1-0.4L91.9,62c-0.3-0.3-0.1-0.7,0.3-0.8
		l2.3-0.3c0.2,0,0.3-0.1,0.4-0.3l1-2.1c0.2-0.3,0.7-0.3,0.8,0l1,2.1c0.1,0.1,0.2,0.2,0.4,0.3l0.7,0.1l1.6,0.2
		c0.3,0.1,0.4,0.3,0.4,0.6c0,0.1,0,0.2-0.1,0.2L99,63.6z"/>
	<path class="st8" d="M109.9,55.2c-0.2,0-0.4-0.1-0.6-0.2c-0.3-0.3-0.3-0.8,0-1.1l2.2-2.2c0.3-0.3,0.8-0.4,1.1-0.1
		c0.3,0.3,0.4,0.8,0.1,1.1c0,0-0.1,0.1-0.1,0.1l-2.2,2.2C110.3,55.1,110.1,55.2,109.9,55.2z"/>
	<path class="st8" d="M38.4,38.1L38.4,38.1c-0.4,0-0.8-0.4-0.8-0.8V37c0-0.4,0.4-0.8,0.8-0.8c0.4,0,0.8,0.4,0.8,0.8v0.3
		c0,0.4-0.3,0.8-0.7,0.8C38.5,38.1,38.4,38.1,38.4,38.1z"/>
	<path class="st8" d="M38.4,41L38.4,41c-0.4,0-0.8-0.4-0.8-0.8v-0.3c0-0.4,0.4-0.8,0.8-0.8l0,0c0.4,0,0.8,0.4,0.8,0.8v0.3
		C39.2,40.6,38.9,41,38.4,41C38.4,41,38.4,41,38.4,41z"/>
	<path class="st8" d="M40,39.4h-0.3c-0.4,0-0.8-0.4-0.8-0.8c0-0.4,0.4-0.8,0.8-0.8H40c0.4,0,0.8,0.4,0.8,0.8
		C40.8,39,40.5,39.4,40,39.4C40,39.4,40,39.4,40,39.4z"/>
	<path class="st8" d="M37.1,39.4h-0.3c-0.4,0-0.8-0.4-0.8-0.8c0-0.4,0.4-0.8,0.8-0.8h0.3c0.4,0,0.8,0.4,0.8,0.8
		c0,0.4-0.3,0.8-0.7,0.8C37.2,39.4,37.1,39.4,37.1,39.4z"/>
	<path class="st8" d="M165.4,61.6L165.4,61.6c-0.4,0-0.8-0.4-0.8-0.8v-0.3c0-0.4,0.4-0.8,0.8-0.8s0.8,0.4,0.8,0.8l0,0v0.3
		c0,0.4-0.3,0.8-0.7,0.8C165.5,61.6,165.4,61.6,165.4,61.6z"/>
	<path class="st8" d="M165.4,64.5L165.4,64.5c-0.4,0-0.8-0.4-0.8-0.8v-0.3c0-0.4,0.4-0.8,0.8-0.8s0.8,0.4,0.8,0.8v0.3
		C166.2,64.1,165.9,64.5,165.4,64.5C165.4,64.5,165.4,64.5,165.4,64.5z"/>
	<path class="st8" d="M167,62.9h-0.3c-0.4,0-0.8-0.4-0.8-0.8c0-0.4,0.4-0.8,0.8-0.8c0,0,0,0,0,0h0.3c0.4,0,0.8,0.4,0.8,0.8
		C167.8,62.5,167.5,62.9,167,62.9C167,62.9,167,62.9,167,62.9z"/>
	<path class="st8" d="M164.1,62.9h-0.3c-0.4,0-0.8-0.4-0.8-0.8c0-0.4,0.4-0.8,0.8-0.8h0.3c0.4,0,0.8,0.4,0.8,0.8
		c0,0.4-0.3,0.8-0.7,0.8C164.2,62.9,164.1,62.9,164.1,62.9z"/>
	<path class="st8" d="M39.2,110.5L39.2,110.5c-0.4,0-0.8-0.4-0.8-0.8v-0.3c0-0.4,0.4-0.8,0.8-0.8c0.4,0,0.8,0.4,0.8,0.8c0,0,0,0,0,0
		v0.3c0,0.4-0.3,0.8-0.7,0.8C39.3,110.5,39.2,110.5,39.2,110.5z"/>
	<path class="st8" d="M39.2,113.4L39.2,113.4c-0.4,0-0.8-0.4-0.8-0.8v-0.3c0-0.4,0.4-0.8,0.8-0.8c0.4,0,0.8,0.4,0.8,0.8c0,0,0,0,0,0
		v0.3C40,113,39.7,113.4,39.2,113.4C39.2,113.4,39.2,113.4,39.2,113.4z"/>
	<path class="st8" d="M40.8,111.8h-0.3c-0.4,0-0.8-0.4-0.8-0.8s0.4-0.8,0.8-0.8l0,0h0.3c0.4,0,0.8,0.4,0.8,0.8
		C41.6,111.4,41.3,111.8,40.8,111.8C40.8,111.8,40.8,111.8,40.8,111.8z"/>
	<path class="st8" d="M37.9,111.8h-0.3c-0.4,0-0.8-0.4-0.8-0.8s0.4-0.8,0.8-0.8h0.3c0.4,0,0.8,0.4,0.8,0.8c0,0.4-0.3,0.8-0.7,0.8
		C38,111.8,37.9,111.8,37.9,111.8z"/>
	<path class="st8" d="M329,109L329,109c-0.4,0-0.8-0.4-0.8-0.8v-0.3c0-0.4,0.4-0.8,0.8-0.8c0.4,0,0.8,0.4,0.8,0.8v0.3
		C329.8,108.6,329.4,109,329,109z"/>
	<path class="st8" d="M328.9,111.9L328.9,111.9c-0.4,0-0.8-0.4-0.8-0.8v-0.3c0-0.4,0.4-0.8,0.8-0.8c0.4,0,0.8,0.4,0.8,0.8l0,0v0.3
		C329.8,111.5,329.4,111.9,328.9,111.9z"/>
	<path class="st8" d="M330.5,110.3h-0.3c-0.4,0-0.8-0.4-0.8-0.8s0.4-0.8,0.8-0.8l0,0h0.3c0.4,0,0.8,0.4,0.8,0.8
		C331.3,109.9,331,110.3,330.5,110.3C330.5,110.3,330.5,110.3,330.5,110.3z"/>
	<path class="st8" d="M327.7,110.3h-0.3c-0.4,0-0.8-0.4-0.8-0.8s0.4-0.8,0.8-0.8l0,0h0.3c0.4,0,0.8,0.4,0.8,0.8
		S328.1,110.3,327.7,110.3z"/>
	<path class="st8" d="M380,41.5L380,41.5c-0.4,0-0.8-0.4-0.8-0.8v-0.3c0-0.4,0.4-0.8,0.8-0.8c0.4,0,0.8,0.4,0.8,0.8v0.3
		c0,0.4-0.3,0.8-0.7,0.8C380.1,41.5,380,41.5,380,41.5z"/>
	<path class="st8" d="M380,44.4L380,44.4c-0.4,0-0.8-0.4-0.8-0.8v-0.3c0-0.4,0.4-0.8,0.8-0.8c0.4,0,0.8,0.4,0.8,0.8v0.3
		C380.8,44,380.4,44.4,380,44.4z"/>
	<path class="st8" d="M381.6,42.8h-0.3c-0.4,0-0.8-0.4-0.8-0.8c0-0.4,0.4-0.8,0.8-0.8h0.3c0.4,0,0.8,0.4,0.8,0.8
		C382.4,42.4,382.1,42.8,381.6,42.8C381.6,42.8,381.6,42.8,381.6,42.8z"/>
	<path class="st8" d="M378.7,42.8h-0.3c-0.4,0-0.8-0.4-0.8-0.8c0-0.4,0.4-0.8,0.8-0.8h0.3c0.4,0,0.8,0.4,0.8,0.8
		c0,0.4-0.3,0.8-0.7,0.8C378.8,42.8,378.7,42.8,378.7,42.8z"/>
	<path class="st8" d="M326.6,55.5L326.6,55.5c-0.4,0-0.8-0.4-0.8-0.8v-0.3c0-0.4,0.4-0.8,0.8-0.8c0.4,0,0.8,0.4,0.8,0.8v0.3
		C327.4,55.1,327,55.5,326.6,55.5z"/>
	<path class="st8" d="M326.6,58.4L326.6,58.4c-0.4,0-0.8-0.4-0.8-0.8v-0.3c0-0.4,0.4-0.8,0.8-0.8c0.4,0,0.8,0.4,0.8,0.8l0,0v0.3
		C327.4,58,327,58.4,326.6,58.4z"/>
	<path class="st8" d="M328.1,56.8h-0.3c-0.4,0-0.8-0.4-0.8-0.8c0-0.4,0.4-0.8,0.8-0.8h0.3c0.4,0,0.8,0.4,0.8,0.8
		C329,56.4,328.6,56.8,328.1,56.8z"/>
	<path class="st8" d="M325.3,56.8H325c-0.4,0-0.8-0.4-0.8-0.8c0-0.4,0.4-0.8,0.8-0.8h0.3c0.4,0,0.8,0.4,0.8,0.8
		C326.1,56.4,325.7,56.8,325.3,56.8C325.3,56.8,325.3,56.8,325.3,56.8z"/>
	<path class="st8" d="M236.8,87.3c-0.1,0.1-0.2,0.3-0.2,0.5l0.5,2.6c0,0.3-0.2,0.6-0.5,0.6c-0.1,0-0.2,0-0.3,0l-2.4-1.3
		c-0.2-0.1-0.3-0.1-0.5,0L231,91c-0.3,0.1-0.6,0-0.7-0.2c-0.1-0.1-0.1-0.3-0.1-0.4l0.1-0.4l0.4-2.3c0-0.2,0-0.4-0.2-0.5l-1.9-1.9
		c-0.2-0.2-0.2-0.6,0.1-0.8c0.1-0.1,0.2-0.1,0.2-0.1l2.7-0.4c0.2,0,0.3-0.1,0.4-0.3l1.2-2.4c0.2-0.3,0.5-0.4,0.8-0.2
		c0.1,0.1,0.2,0.1,0.2,0.2l1.2,2.4c0.1,0.2,0.2,0.3,0.4,0.3l0.8,0.1l1.8,0.3c0.3,0.1,0.5,0.4,0.4,0.7c0,0.1-0.1,0.2-0.1,0.2
		L236.8,87.3z"/>
	<path class="st8" d="M243.5,70.4c-0.2,0-0.4-0.1-0.6-0.2c-0.3-0.3-0.3-0.8,0-1.1l15-15c0.3-0.3,0.8-0.2,1.1,0.1
		c0.3,0.3,0.3,0.7,0,1l-15,15C243.9,70.3,243.7,70.4,243.5,70.4z"/>
	<path class="st8" d="M236.9,77c-0.2,0-0.4-0.1-0.6-0.2c-0.3-0.3-0.3-0.8,0-1.1l3.8-3.8c0.3-0.3,0.8-0.2,1.1,0.1
		c0.3,0.3,0.3,0.7,0,1l-3.8,3.8C237.3,76.9,237.1,77,236.9,77z"/>
	<path class="st8" d="M239.9,80.8c-0.2,0-0.4-0.1-0.6-0.2c-0.3-0.3-0.3-0.8,0-1.1l4.6-4.6c0.3-0.3,0.8-0.2,1.1,0.1
		c0.3,0.3,0.3,0.7,0,1l-4.6,4.6C240.4,80.7,240.1,80.8,239.9,80.8z"/>
	<path class="st8" d="M247.5,73.3c-0.2,0-0.4-0.1-0.6-0.2c-0.3-0.3-0.3-0.8,0-1.1l1.8-1.8c0.3-0.3,0.8-0.2,1.1,0.1
		c0.3,0.3,0.3,0.7,0,1l-1.8,1.8C247.9,73.2,247.7,73.3,247.5,73.3z"/>
</g>
<g id="Layer_5">
	<path class="st9" d="M256.3,107.3c-3.2-0.3-5-2.1-5.7-5.7c-0.8-4.5-4.9-7.7-9.4-7.2c-2.8,0.2-5.5-0.9-7.3-2.9l-0.1-0.1
		c-1.4-1.6-2.3-3.7-2.3-5.9c0-4.9-3.8-9-8.7-9.4c-8.7-0.8-15.8-0.2-21.9,2.1h-0.1l-0.3,0.1h-0.1l-1,0.4c-0.4,0.2-0.8,0.3-1.1,0.5
		l0,0l-0.7,0.3h-0.1l-0.3,0.2l-0.5,0.3h-0.4l-1.3,1h-0.2l-1.3,1c-0.2,0.1-0.3,0.3-0.5,0.4l-0.6,0.3l-0.2,0.2L192,83l-0.7,0.7
		c-0.3,0.3-0.7,0.6-0.9,0.9l-0.1,0.1c-0.4,0.4-0.8,0.8-1.2,1.3c-0.4,0.4-0.8,0.8-1.1,1.3l-0.1,0.1l-0.2,0.3l-0.4,0.5
		c0,0.1-0.1,0.1-0.1,0.2c-0.4,0.4-0.7,0.8-1,1.3c-0.2,0.3-0.4,0.6-0.5,0.8l-0.2,0.3l-0.4,0.7c-0.1,0.1-0.1,0.2-0.2,0.3
		s-0.2,0.3-0.3,0.4l-0.1,0.1c-0.1,0.2-0.2,0.4-0.3,0.7l-0.3,0.6l-0.2,0.2l-0.4,1c-0.1,0.4-0.3,0.7-0.4,1l-0.5,1.1v0.5
		c-0.1,0.2-0.1,0.4-0.2,0.6c0,0.1,0,0.1-0.1,0.1l-0.1,0.3l-0.1,0.5c0,0.1,0,0.2-0.1,0.3l-0.5,1v0.5c0,0,0,0.1,0,0.1l-0.1,0.2
		c-0.1,0.4-0.2,0.8-0.3,1.2c-0.1,0.2-0.1,0.3-0.1,0.5c-0.1,0.5-0.2,1-0.3,1.5c0,0.1-0.1,0.3-0.1,0.5c-0.1,0.7-0.2,1.3-0.3,2
		c-0.1,0.3-0.1,0.7-0.1,1.1l-0.1,0.3v1.2c-0.1,0.4-0.1,0.9-0.1,1.3v0.5c0,0.1,0,0.2,0,0.3c0,0.4-0.1,0.8-0.1,1.3v0.2
		c0,0.1,0,0.3,0,0.4c0,0.4-0.1,0.8-0.1,1.3v4c0,11,3.8,20.5,10.9,27.4s17.5,10.9,29,10.9h1.2c0.6,0,1.2,0,1.8-0.1c0.4,0,0.9,0,1.3,0
		c0.5,0,1.1,0,1.6-0.1c0.7,0,1.4-0.1,2-0.2c0.3,0,0.6-0.1,0.8-0.1h0.5l0.7-0.1c0.4,0,0.7-0.1,1.1-0.1s0.5,0,0.7-0.1h0.3
		c0.5-0.1,1.1-0.1,1.6-0.2c0.4-0.1,0.7-0.1,1.1-0.2l0.5-0.1l1-0.2c0.6-0.1,1.1-0.2,1.7-0.3l0.2-0.1c0.2,0,0.4-0.1,0.5-0.1
		c0.5-0.1,0.9-0.2,1.1-0.3l0.3-0.1l0.5-0.1h0.3l0.9-0.3l0.3-0.1c0.3-0.1,0.5-0.1,0.7-0.2h0.3l0.9-0.4c0.2-0.1,0.4-0.2,0.6-0.3
		c0.5-0.2,1-0.4,1.5-0.6c13.1-5.9,19.5-16.9,19.5-33.6C265.1,109.9,260.3,107.7,256.3,107.3z"/>
	<path class="st10" d="M245.7,102.4c-0.3-1.9-2.1-3.3-4.1-3.1c-7.7,0.6-14.4-5.1-15.1-12.9c0-0.3,0-0.6,0-0.9
		c0.1-2.4-1.7-4.4-4.1-4.5c-31.7-3.1-37.6,16.9-37.6,37.6s15.2,33.8,36,33.3c31-0.6,39.2-14.8,39.2-33.3c0-5.3-1.9-6.2-4.2-6.4
		C252.3,111.9,247,110,245.7,102.4z"/>
	<path class="st0" d="M214.2,121.2c-7.6-4.1-12.6-11.8-13.2-20.4c-0.4-6.1,0.2-12.1,1.7-18c-14.6,5.4-17.9,20.4-17.9,35.8
		c0,20.8,15.2,33.8,36,33.3c9.7-0.2,17.2-1.7,22.8-4.3C235.7,136.9,225.7,127.9,214.2,121.2z"/>
	<path class="st11" d="M210,99.8l-1.8-1.8c-1.6-1.6-1.6-4.3,0-5.9l1.8-1.8c1.6-1.6,4.3-1.6,5.9,0l1.8,1.8c1.6,1.6,1.6,4.3,0,5.9
		l-1.8,1.8C214.3,101.4,211.6,101.4,210,99.8z"/>
	<path class="st12" d="M211.7,142.3l-1.6-1.6c-1.4-1.4-1.4-3.8,0-5.2l1.6-1.6c1.4-1.4,3.8-1.4,5.2,0l1.6,1.6c1.4,1.4,1.4,3.8,0,5.2
		l-1.6,1.6C215.5,143.7,213.1,143.7,211.7,142.3z"/>
	<path class="st12" d="M192.8,116.5l-1.3-1.3c-1.2-1.2-1.2-3.1-0.1-4.2c0,0,0,0,0.1-0.1l1.3-1.3c1.2-1.2,3.1-1.2,4.2-0.1
		c0,0,0,0,0.1,0.1l1.3,1.3c1.2,1.2,1.2,3.1,0.1,4.2c0,0,0,0-0.1,0.1l-1.3,1.3C195.9,117.7,194,117.7,192.8,116.5
		C192.8,116.5,192.8,116.5,192.8,116.5z"/>
	<path class="st11" d="M240.2,130l-1.8-1.8c-1.6-1.6-1.6-4.3,0-5.9l1.8-1.8c1.6-1.6,4.3-1.6,5.9,0l1.8,1.8c1.6,1.6,1.6,4.3,0,5.9
		l-1.8,1.8C244.5,131.6,241.8,131.6,240.2,130z"/>
	<path class="st13" d="M234.6,113.6c-0.6,0-1.1-0.5-1.1-1.1v-1.9c0-0.6,0.5-1.1,1.1-1.1s1.1,0.5,1.1,1.1l0,0v1.9
		c0.1,0.5-0.3,1-0.9,1.1C234.7,113.6,234.7,113.6,234.6,113.6z"/>
	<path class="st13" d="M210.2,113.6c-0.6,0-1.1-0.5-1.1-1.1v-1.9c0-0.6,0.5-1.1,1.1-1.1c0.6,0,1.1,0.5,1.1,1.1v1.9
		C211.3,113.1,210.8,113.6,210.2,113.6z"/>
	<path class="st13" d="M225.6,114.7c0.2-1.9-1.2-3.5-3.1-3.7c0,0-0.1,0-0.1,0c-1.9,0.1-3.3,1.8-3.2,3.7c-0.2,1.8,1,3.4,2.8,3.6
		c1.8,0.2,3.4-1,3.6-2.8C225.6,115.3,225.6,115,225.6,114.7z"/>
</g>
</svg>
