<svg id="Layer_1" data-name="Layer 1" xmlns="http://www.w3.org/2000/svg" viewBox="0 0 19.75 17.34"><title>camera</title><path id="Path_1" data-name="Path 1" d="M18.82,3.37h0a3.06,3.06,0,0,0-2.25-.93H15l-.31-.83a2.51,2.51,0,0,0-1-1.14A2.49,2.49,0,0,0,12.31,0H7.44A2.42,2.42,0,0,0,6,.47a2.61,2.61,0,0,0-.9,1.15l-.31.82H3.17a3.06,3.06,0,0,0-2.24.93A3,3,0,0,0,0,5.61v8.53a3.06,3.06,0,0,0,.93,2.24,3.06,3.06,0,0,0,2.24.93h13.4a3.06,3.06,0,0,0,2.25-.93,3.1,3.1,0,0,0,.93-2.24V5.61A3.1,3.1,0,0,0,18.82,3.37ZM1,14.14V5.61a2.11,2.11,0,0,1,.64-1.55,2.11,2.11,0,0,1,1.55-.64H5.48L6,2a1.47,1.47,0,0,1,.57-.69A1.44,1.44,0,0,1,7.44,1h4.87a1.43,1.43,0,0,1,.84.3,1.56,1.56,0,0,1,.58.69l.54,1.45h2.3A2.19,2.19,0,0,1,18.76,5.6h0v8.53a2.19,2.19,0,0,1-2.19,2.19H3.17A2.15,2.15,0,0,1,1,14.14Z" transform="translate(0 0.03)"/><path id="Path_2" data-name="Path 2" d="M9.87,14.41A4.51,4.51,0,0,0,14.38,9.9a4.35,4.35,0,0,0-1.32-3.18,4.48,4.48,0,0,0-6.37,0,4.48,4.48,0,0,0,0,6.37A4.35,4.35,0,0,0,9.87,14.41Zm0-8a3.37,3.37,0,0,1,2.49,1,3.36,3.36,0,0,1,1,2.49,3.35,3.35,0,0,1-1,2.49,3.35,3.35,0,0,1-2.49,1A3.53,3.53,0,0,1,6.35,9.9,3.52,3.52,0,0,1,9.87,6.38Z" transform="translate(0 0.03)"/></svg>