<svg id="Layer_1" data-name="Layer 1" xmlns="http://www.w3.org/2000/svg" viewBox="0 0 15.02 17.34"><title>change-account</title><path d="M2.37,11.23A3.46,3.46,0,0,1,7.52,6.62,3.44,3.44,0,0,1,10.35,5.5a3.38,3.38,0,0,1,2.11,1,3.45,3.45,0,0,1,.19,4.76l.18.1A3.86,3.86,0,0,1,15,14.84c0,.65,0,1.31,0,2,0,.38-.16.54-.54.54H.55c-.39,0-.55-.16-.54-.55,0-.78,0-1.56,0-2.33a3.78,3.78,0,0,1,2.17-3.15ZM9,16.45c0-.59,0-1.16,0-1.73A3,3,0,0,0,6.92,12a.41.41,0,0,0-.29,0A3.35,3.35,0,0,1,3.3,12a.42.42,0,0,0-.27,0A2.82,2.82,0,0,0,1,14.23a14.37,14.37,0,0,0-.06,2.18s0,0,0,0ZM7.52,9a2.57,2.57,0,1,0-2.58,2.56A2.58,2.58,0,0,0,7.52,9Zm5.11,0A2.57,2.57,0,0,0,11,6.54a2.6,2.6,0,0,0-2.84.69c-.08.09-.12.15-.06.27a3.29,3.29,0,0,1,0,2.87.21.21,0,0,0,0,.26,2.59,2.59,0,0,0,2.83.72A2.56,2.56,0,0,0,12.63,9ZM9.9,16.44h4.22c0-.59,0-1.18,0-1.76A3,3,0,0,0,12,11.94a.5.5,0,0,0-.32,0,3.32,3.32,0,0,1-1.68.41c-.36,0-.72-.08-1.07-.12l0,0A3.92,3.92,0,0,1,9.91,15C9.89,15.48,9.9,16,9.9,16.44Z"/><path d="M9.61,3a2.11,2.11,0,1,0-4.21.1c0,.33,0,.66,0,1A.42.42,0,0,1,5,4.48a.4.4,0,0,1-.43-.4,6.51,6.51,0,0,1,.09-1.87,3,3,0,0,1,5.82.21c0,.16.05.33.08.54l.36-.31a.42.42,0,0,1,.62,0,.41.41,0,0,1,0,.61Q11,3.82,10.4,4.36a.45.45,0,0,1-.63,0C9.39,4,9,3.63,8.66,3.25a.41.41,0,0,1,0-.59.41.41,0,0,1,.59,0C9.37,2.73,9.47,2.84,9.61,3Z"/></svg>