<svg id="Layer_1" data-name="Layer 1" xmlns="http://www.w3.org/2000/svg" viewBox="0 0 22.05 20.34"><title>chat</title><path id="Path_1" data-name="Path 1" d="M14.06,1.71c-4.59,0-8.4,2.84-8.78,6.5-2.7.94-4.44,3-4.44,5.44A5.48,5.48,0,0,0,3.18,18v3.45a.62.62,0,0,0,.18.44.64.64,0,0,0,.43.18.74.74,0,0,0,.43-.17l2.64-2.41a9.75,9.75,0,0,0,1.31.1h0A7.54,7.54,0,0,0,15,15.83c.23,0,.47-.05.7-.09l3.27,3a.57.57,0,0,0,.44.17.61.61,0,0,0,.6-.62V14a6.55,6.55,0,0,0,2.85-5.21C22.89,4.88,18.93,1.71,14.06,1.71ZM6.78,18.19a.66.66,0,0,0-.54.15L4.42,20V17.65a.62.62,0,0,0-.28-.52,4.25,4.25,0,0,1-2.06-3.49A4.72,4.72,0,0,1,5.29,9.52a3.84,3.84,0,0,0,.1.51,6.54,6.54,0,0,0,2.16,3.5,9.78,9.78,0,0,0,6,2.32,6.26,6.26,0,0,1-5.33,2.47h0A7.4,7.4,0,0,1,6.78,18.19Zm1.66-5.5A6,6,0,0,1,6.58,9.78a4.9,4.9,0,0,1-.13-1C6.48,5.56,9.89,3,14.06,3s7.58,2.62,7.58,5.82a5.36,5.36,0,0,1-2.56,4.39h0a.63.63,0,0,0-.27.52v3.17l-2.45-2.24a.63.63,0,0,0-.43-.17h-.11a9.26,9.26,0,0,1-1.67.15A8.55,8.55,0,0,1,8.44,12.69Z" transform="translate(-0.84 -1.71)"/></svg>