<?xml version="1.0" standalone="no"?>
<!DOCTYPE svg PUBLIC "-//W3C//DTD SVG 20010904//EN"
 "http://www.w3.org/TR/2001/REC-SVG-20010904/DTD/svg10.dtd">
<svg version="1.0" xmlns="http://www.w3.org/2000/svg"
 width="181.000000pt" height="181.000000pt" viewBox="0 0 181.000000 181.000000"
 preserveAspectRatio="xMidYMid meet">
<metadata>
Created by potrace 1.11, written by Peter Selinger 2001-2013
</metadata>
<g transform="translate(0.000000,181.000000) scale(0.100000,-0.100000)"
fill="#000000" stroke="none">
<path d="M237 1798 c-86 -18 -159 -75 -203 -158 l-29 -55 0 -680 0 -680 27
-51 c32 -60 94 -119 157 -147 45 -21 58 -21 711 -21 l665 0 57 26 c73 34 132
95 159 166 21 56 21 67 21 703 0 424 -4 659 -11 685 -23 86 -90 159 -186 204
-25 11 -148 14 -680 15 -357 1 -667 -2 -688 -7z"/>
</g>
</svg>
