<svg xmlns="http://www.w3.org/2000/svg" width="250" height="250" viewBox="0 0 250 250">
    <defs>
        <style>
            .cls-1,.cls-6{fill:#fff}.cls-1{stroke:#707070}.cls-2{clip-path:url(#clip-path)}.cls-3,.cls-4,.cls-5{fill:#ffd899}.cls-4{opacity:.64}.cls-5{stroke:#fff;stroke-miterlimit:10;stroke-width:11.418px}.cls-7{fill:#ffcd74}
        </style>
        <clipPath id="clip-path">
            <path id="Rectangle_1742" d="M0 0h250v250H0z" class="cls-1" data-name="Rectangle 1742" transform="translate(443 320.037)"/>
        </clipPath>
    </defs>
    <g id="Mask_Group_32" class="cls-2" data-name="Mask Group 32" transform="translate(-443 -320.037)">
        <g id="redirect--post" transform="translate(436.389 306.546)">
            <path id="Path_1631" d="M242.188 68.51H21.034A14.388 14.388 0 0 0 6.611 82.933v153.846h97.656l14.3 9.615h26.2l14.3-9.615h97.536V82.933a14.388 14.388 0 0 0-14.415-14.423zM247 99.038v128.125H16.226V78.125H247z" class="cls-3" data-name="Path 1631"/>
            <path id="Path_1632" d="M20.012 262.62h223.2c6.31 0 11.6-4.687 13.041-11.058H6.971c1.442 6.371 6.729 11.058 13.041 11.058z" class="cls-3" data-name="Path 1632"/>
            <path id="Path_1633" d="M136.358 87.74H25.841v129.808H237.38V87.74z" class="cls-4" data-name="Path 1633"/>
            <path id="Path_1634" d="M182.813 20.072H57.212v126.382h16.346V39.483a2.9 2.9 0 0 1 2.825-3h106.43z" class="cls-5" data-name="Path 1634"/>
            <path id="Path_1635" d="M182.813 20.072H57.212v126.382h16.346V39.483a2.9 2.9 0 0 1 2.825-3h106.43z" class="cls-3" data-name="Path 1635"/>
            <path id="Path_1636" d="M73.438 36.358v138.4h105.348l32.332-33.474V36.358z" class="cls-6" data-name="Path 1636"/>
            <path id="Path_1637" d="M178.726 164.3l22.474-23.074h-22.474z" class="cls-7" data-name="Path 1637"/>
            <path id="Path_1638" d="M79.447 168.75h93.269v-30.529a3.109 3.109 0 0 1 3.125-2.945h29.207V42.368H79.447V168.75zm19.832-98.5h49.339a2.945 2.945 0 1 1 0 5.889H99.279a2.945 2.945 0 1 1 0-5.889zm0 23.8h83.714a2.945 2.945 0 0 1 0 5.889H99.279a2.945 2.945 0 0 1 0-5.889zm0 23.017h83.714a2.945 2.945 0 0 1 0 5.889H99.279a2.945 2.945 0 0 1 0-5.889z" class="cls-7" data-name="Path 1638"/>
        </g>
    </g>
</svg>
