<svg id="Layer_1" data-name="Layer 1" xmlns="http://www.w3.org/2000/svg" xmlns:xlink="http://www.w3.org/1999/xlink" viewBox="0 0 1085.19 785.42"><defs><linearGradient id="linear-gradient" x1="704.83" y1="906.08" x2="704.83" y2="713.88" gradientTransform="translate(0 -35.68)" gradientUnits="userSpaceOnUse"><stop offset="0" stop-color="gray" stop-opacity="0.25"/><stop offset="0.54" stop-color="gray" stop-opacity="0.12"/><stop offset="1" stop-color="gray" stop-opacity="0.1"/></linearGradient></defs><title>zinbee-login-image040719</title><ellipse cx="484.7" cy="670.72" rx="484.7" ry="114.7" style="fill:#fff1dc"/><path d="M1135.93,516.6c-6.6,32.4-40.6,48.7-59.6,72.9-35.9,45.6-21.9,112.2.9,165.6,7.6,17.9,16.3,36.8,13,55.9-3.9,23.4-24.8,40.5-46.8,49.6-40,16.5-87.9,12.6-124.7-10.3-31.8-19.8-54.5-51.9-86.8-70.8-54.1-31.6-122.9-19.6-181.6,2.1-41.5,15.4-87,35.4-128.2,19.3-29-11.3-49.1-38.9-60.1-68-5.3-14.1-9.1-29.3-19.2-40.5-6-6.7-13.8-11.4-21.8-15.3-73.2-36.3-165.7-16.9-236.7-57.1-48-27.2-78.8-78.5-92.4-131.9s-12-109.5-8.6-164.6c2.5-39.1,6.9-80.9,31.9-111.1,26.5-31.9,71.8-43.8,112.9-37.7s78.2,27.7,111,53.2c40.9,31.9,78.8,71.5,129,84.5,34.2,8.8,70.2,4,105.4,2.3,59-2.8,117.9,3.4,176.6,10.2,28.6,3.3,57.2,6.8,85.5,11.8,6.3,1.1,12.7,2.3,19,3.6,3.2.6,6.3,1.3,9.5,2,2.5.5,4.9,1.1,7.4,1.7,3.9.9,7.8,1.9,11.6,2.9,11.1,2.9,22.1,6.1,33,9.9,37.8,12.9,68.2,36.4,103.9,52.8,23.3,10.7,48.7,13.6,70.7,27.2C1118,453.3,1142.93,482.5,1135.93,516.6Z" transform="translate(-51.93 -159.28)" style="fill:#ffc107;opacity:0.10000000149011612;isolation:isolate"/><path d="M629.13,786.2s39.1-3.1,50.4,10.4,51.5,44.3,34.9,51.2-105.7-20.6-105.7-20.6Z" transform="translate(-51.93 -159.28)" style="fill:#ffb9b9"/><path d="M468.23,317.5a20.41,20.41,0,0,0-16.6-18.6c-6-1-12.6.7-17.7-2.5-2.3-1.5-4-3.7-5.8-5.7-7.3-7.8-18.3-11.4-29-11.7s-21.3,2.3-31.5,5.2c-20.5,5.9-42.2,14.6-53.1,32.9-16.6,27.9-1.3,65.6-14.4,95.4-5.7,13-16.6,23.6-20.1,37.3-4.8,18.4,4.6,37,11.9,54.5a258.9,258.9,0,0,1,14.7,48.8c2.9,14.7,4.5,30.1,1.2,44.8-1.4,6.4-3.8,13-2.5,19.4,1.9,9.8,11.4,15.9,19.9,20.9l2.2,1.3c12.4,7.2,25.1,14.6,39.3,16.4,8.8,1.1,18.1-.1,25.7-4.6s13.4-12.5,14.1-21.4c.7-10-4.8-19.4-6-29.3a8.64,8.64,0,0,1,.3-4.5c.8-1.9,2.6-3.1,4.3-4.3,24.4-17,37.5-48.9,32.1-78.2-3.7-19.9-15.1-39.8-9.6-59.3,3.1-10.8,10.9-19.5,15.3-29.8a50,50,0,0,0,1.6-34.7c-2.5-7.9-7.1-15.7-5.5-23.8,2.8-14.4,21.9-18.9,29.1-31.7,5.4-9.5,2.2-22.9-6.9-28.9" transform="translate(-51.93 -159.28)" style="fill:#b96b6b"/><path d="M468.23,317.5a20.41,20.41,0,0,0-16.6-18.6c-6-1-12.6.7-17.7-2.5-2.3-1.5-4-3.7-5.8-5.7-7.3-7.8-18.3-11.4-29-11.7s-21.3,2.3-31.5,5.2c-20.5,5.9-42.2,14.6-53.1,32.9-16.6,27.9-1.3,65.6-14.4,95.4-5.7,13-16.6,23.6-20.1,37.3-4.8,18.4,4.6,37,11.9,54.5a258.9,258.9,0,0,1,14.7,48.8c2.9,14.7,4.5,30.1,1.2,44.8-1.4,6.4-3.8,13-2.5,19.4,1.9,9.8,11.4,15.9,19.9,20.9l2.2,1.3c12.4,7.2,25.1,14.6,39.3,16.4,8.8,1.1,18.1-.1,25.7-4.6s13.4-12.5,14.1-21.4c.7-10-4.8-19.4-6-29.3a8.64,8.64,0,0,1,.3-4.5c.8-1.9,2.6-3.1,4.3-4.3,24.4-17,37.5-48.9,32.1-78.2-3.7-19.9-15.1-39.8-9.6-59.3,3.1-10.8,10.9-19.5,15.3-29.8a50,50,0,0,0,1.6-34.7c-2.5-7.9-7.1-15.7-5.5-23.8,2.8-14.4,21.9-18.9,29.1-31.7,5.4-9.5,2.2-22.9-6.9-28.9" transform="translate(-51.93 -159.28)" style="fill:#141414"/><path d="M88,760.9a23.9,23.9,0,0,0,23.9,23.9h173V774.2h-11.1V747.6h11.1v-4.7h13.3V732.3h-8V705.7h8V695.1h-8.7V686l-13.1-24.6h13.8V647.1l-34.7-42.4H133.23l-31.6,49.7a23.83,23.83,0,0,0,14.8,42.4,23.81,23.81,0,0,0-6.6,40.4A23.84,23.84,0,0,0,88,760.9Zm15.3-88a13.25,13.25,0,0,1,6.8-11.5h158.5v24.8h-152A13.36,13.36,0,0,1,103.33,672.9Zm22,32.8h154.4v26.6H125.33a13.3,13.3,0,0,1,0-26.6ZM112,747.6h151.3v26.6H112a13.3,13.3,0,1,1,0-26.6Z" transform="translate(-51.93 -159.28)" style="fill:#ffcd74"/><polygon points="455.7 657.32 250.9 657.32 250.9 547.82 365.2 591.62 455.7 547.82 455.7 657.32" style="fill:#777b9b"/><polygon points="455.7 657.32 250.9 657.32 250.9 547.82 365.2 591.62 455.7 547.82 455.7 657.32" style="opacity:0.10000000149011612;isolation:isolate"/><path d="M482.83,827.2s-37.1,8.9-40.9,25.1,21.9,14.8,21.9,14.8,36.2-7.4,40.9-37S482.83,827.2,482.83,827.2Z" transform="translate(-51.93 -159.28)" style="fill:#ffb9b9"/><path d="M482.83,827.2s-37.1,8.9-40.9,25.1,21.9,14.8,21.9,14.8,36.2-7.4,40.9-37S482.83,827.2,482.83,827.2Z" transform="translate(-51.93 -159.28)" style="fill:#f7c6a4"/><path d="M383.13,876.7s-35,2.3-35.5,30.7c-.1,3.8,36.5,4.9,79.8-18.4s46.3-25.8,46.3-25.8-16.8-27-28.6-30.7S383.13,876.7,383.13,876.7Z" transform="translate(-51.93 -159.28)" style="fill:#cbcdda"/><path d="M178.13,768.1s-40,33.3,34.3,80,145.7,38.1,145.7,38.1,77.5-9.2,89.2-45.5-57.8-66.8-57.8-66.8-76.2,0-110.5-21.9S178.13,768.1,178.13,768.1Z" transform="translate(-51.93 -159.28)" style="fill:#777b9b"/><path d="M394.23,710.9s34.3,20,80.9,0c35.9-15.4,114.6-9.4,149-5.7a40,40,0,0,1,34.4,28.4c3.6,12.7,1,28.4-20.6,43-47.6,32.4-80.9,41.9-93.3,55.2s-47.6,20-47.6,20-44.8-6.7-44.8-16.2,40.9-56.2,40.9-56.2-60,55.2-121.9-19S394.23,710.9,394.23,710.9Z" transform="translate(-51.93 -159.28)" style="fill:#777b9b"/><path d="M377.13,576.7l-120.9-82.8s58-39.3,63-74.5a28.66,28.66,0,0,0-4-19.8c-23.8-38.1,83.8,0,83.8,0a224.88,224.88,0,0,0,4,29.5c4.7,23.2,14.5,54.1,35,69.5C473.33,525.3,377.13,576.7,377.13,576.7Z" transform="translate(-51.93 -159.28)" style="fill:#ffcca9"/><path d="M403,429a70.52,70.52,0,0,1-83.9-9.7,28.66,28.66,0,0,0-4-19.8c-23.8-38.1,83.8,0,83.8,0A240.65,240.65,0,0,0,403,429Z" transform="translate(-51.93 -159.28)" style="opacity:0.10000000149011612;isolation:isolate"/><circle cx="315.7" cy="207.02" r="70.5" style="fill:#ffcca9"/><path d="M411.43,459.6s-14.3,83.8-38.1,79-98.1-88.6-98.1-88.6-77.1,25.7-64.8,88.6,24.8,116.2-1,136.2-41.9,113.3-41.9,113.3,81.9-34.3,124.7-20.9,86.7,6.7,97.1-5.7,25.7-39,25.7-39-21.9-32.4-11.4-48.6,23.8-17.1,31.4-62.8,67.6-61.9,56.2-87.6C479.93,497.6,458,459.6,411.43,459.6Z" transform="translate(-51.93 -159.28)" style="opacity:0.10000000149011612;isolation:isolate"/><path d="M411.43,455.7s-14.3,83.8-38.1,79-98.1-88.6-98.1-88.6-77.1,25.7-64.8,88.6,24.8,116.2-1,136.2-41.9,113.3-41.9,113.3,81.9-34.3,124.7-20.9,86.7,6.7,97.1-5.7,25.7-39,25.7-39-21.9-32.4-11.4-48.6,23.8-17.1,31.4-62.8,67.6-61.9,56.2-87.6S458,455.7,411.43,455.7Z" transform="translate(-51.93 -159.28)" style="fill:#ff6978"/><path d="M468.53,799.5s38.1-9.5,51.4,1.9,58.1,35.2,42.8,44.8-107.6-2.9-107.6-2.9Z" transform="translate(-51.93 -159.28)" style="fill:#ffcca9"/><g style="opacity:0.05000000074505806"><path d="M363.83,534.8a9.81,9.81,0,0,0,6.5-1c-26.5-10.2-95.1-87.6-95.1-87.6s-2.7.9-7,2.8C281.33,463.6,342.63,530.5,363.83,534.8Z" transform="translate(-51.93 -159.28)"/><path d="M481.83,519.5c26.3-10.1-48.6,41.9-56.2,87.6s-20.9,46.7-31.4,62.8,11.4,48.6,11.4,48.6-15.2,26.7-25.7,39c-6,7.1-22.9,12.3-44.4,13,25.8.8,47-4.8,53.9-13,10.5-12.4,25.7-39,25.7-39s-21.9-32.4-11.4-48.6,23.8-17.1,31.4-62.8S475.73,521.9,481.83,519.5Z" transform="translate(-51.93 -159.28)"/><path d="M168.33,780.3c-.5,2.5-.7,4-.7,4s53.2-22.3,96.3-23.9C230.73,759,187.73,773.1,168.33,780.3Z" transform="translate(-51.93 -159.28)"/></g><path d="M484.73,514.8s8.6,1,17.1,45.7,41.9,87.6,41.9,87.6a205.67,205.67,0,0,1,30.5,58.1c11.4,34.3,62.4,79.5,80.5,81.4,0,0-34.8,34.8-30.9,44.3s-3.8,0-3.8,0-47.6-18.1-58.1-47.6-56.2-77.1-56.2-77.1-61-118.1-63.9-137.2S484.73,514.8,484.73,514.8Z" transform="translate(-51.93 -159.28)" style="fill:#ff6978"/><path d="M222.43,675.2s73.3,8.6,89.5,31.4,91.2-13.3,91.2-13.3" transform="translate(-51.93 -159.28)" style="opacity:0.10000000149011612;isolation:isolate"/><path d="M294.33,545.3s31.4,115.2,42.8,129.5,100,131.4,141.9,123.8c0,0-12.4,53.3-20.9,55.2,0,0-86.7-85.7-116.2-84.7,0,0-54.3-44.8-60-66.7s-51.4-93.3-51.4-93.3-22.9-50.5-13.3-72.4C226.63,514.8,277.13,524.3,294.33,545.3Z" transform="translate(-51.93 -159.28)" style="opacity:0.10000000149011612;isolation:isolate"/><path d="M295.23,543.4s31.4,115.2,42.8,129.5,100,131.4,141.9,123.8c0,0-12.4,53.3-20.9,55.2,0,0-86.7-85.7-116.2-84.7,0,0-54.3-44.8-60-66.7s-51.4-93.3-51.4-93.3-22.9-50.5-13.3-72.4S278.13,522.4,295.23,543.4Z" transform="translate(-51.93 -159.28)" style="fill:#ff6978"/><path d="M418.73,299.4a20.41,20.41,0,0,0-16.6-18.6c-6-1-12.6.7-17.7-2.5-2.3-1.5-4-3.7-5.8-5.7-7.3-7.8-18.3-11.4-29-11.7s-21.3,2.3-31.5,5.2c-20.5,5.9-42.2,14.6-53.1,32.9-16.6,27.9-1.3,65.6-14.4,95.4-5.7,13-16.6,23.6-20.1,37.3-4.8,18.4,4.6,37,11.9,54.5a258.9,258.9,0,0,1,14.7,48.8c2.9,14.7,4.5,30.1,1.2,44.8-1.4,6.4-3.8,13-2.5,19.4,1.9,9.8,11.4,15.9,19.9,20.9l2.2,1.3c12.4,7.2,25.1,14.6,39.3,16.4,8.8,1.1,18.1-.1,25.7-4.6s13.4-12.5,14.1-21.4c.7-10-4.8-19.4-6-29.3a8.64,8.64,0,0,1,.3-4.5c.8-1.9,2.6-3.1,4.3-4.3,24.4-17,37.5-48.9,32.1-78.2-3.7-19.9-15.1-39.8-9.6-59.3,3.1-10.8,10.9-19.5,15.3-29.8a50,50,0,0,0,1.6-34.7c-2.5-7.9-7.1-15.7-5.5-23.8,2.8-14.4,21.9-18.9,29.1-31.7,5.4-9.5,2.2-22.9-6.9-28.9" transform="translate(-51.93 -159.28)" style="opacity:0.10000000149011612;isolation:isolate"/><path d="M416.83,298.5a20.41,20.41,0,0,0-16.6-18.6c-6-1-12.6.7-17.7-2.5-2.3-1.5-4-3.7-5.8-5.7-7.3-7.8-18.3-11.4-29-11.7s-21.3,2.3-31.5,5.2c-20.5,5.9-42.2,14.6-53.1,32.9-16.6,27.9-1.3,65.6-14.4,95.4-5.7,13-16.6,23.6-20.1,37.3-4.8,18.4,4.6,37,11.9,54.5a258.9,258.9,0,0,1,14.7,48.8c2.9,14.7,4.5,30.1,1.2,44.8-1.4,6.4-3.8,13-2.5,19.4,1.9,9.8,11.4,15.9,19.9,20.9l2.2,1.3c12.4,7.2,25.1,14.6,39.3,16.4,8.8,1.1,18.1-.1,25.7-4.6s13.4-12.5,14.1-21.4c.7-10-4.8-19.4-6-29.3a8.64,8.64,0,0,1,.3-4.5c.8-1.9,2.6-3.1,4.3-4.3,24.4-17,37.5-48.9,32.1-78.2-3.7-19.9-15.1-39.8-9.6-59.3,3.1-10.8,10.9-19.5,15.3-29.8a50,50,0,0,0,1.6-34.7c-2.5-7.9-7.1-15.7-5.5-23.8,2.8-14.4,21.9-18.9,29.1-31.7,5.4-9.5,2.2-22.9-6.9-28.9" transform="translate(-51.93 -159.28)" style="fill:#141414"/><path d="M481.63,903.6a10.86,10.86,0,0,0,3.6-5.5c.5-2.2-.5-4.8-2.6-5.6-2.3-.9-4.8.7-6.7,2.4s-4.1,3.5-6.6,3.2a9.94,9.94,0,0,0,3.1-9.3,3.38,3.38,0,0,0-.9-1.9c-1.3-1.4-3.7-.8-5.2.3-5,3.5-6.3,10.2-6.4,16.3-.5-2.2-.1-4.5-.1-6.7s-.6-4.8-2.5-5.9a8.49,8.49,0,0,0-3.8-.9c-2.2-.1-4.7.1-6.2,1.8-1.9,2-1.4,5.4.2,7.6s4.1,3.6,6.4,5.2a14.84,14.84,0,0,1,4.6,4.4,1.91,1.91,0,0,1,.3.8h13.9A50,50,0,0,0,481.63,903.6Z" transform="translate(-51.93 -159.28)" style="fill:#ffcd74"/><path d="M504,854.3h99.4a6.23,6.23,0,0,1,6.2,6.2v3.4a6.23,6.23,0,0,1-6.2,6.2H504a6.23,6.23,0,0,1-6.2-6.2v-3.4A6.23,6.23,0,0,1,504,854.3Z" transform="translate(-51.93 -159.28)" style="fill:#535461"/><g style="opacity:0.699999988079071"><path d="M592.73,678.2h224.2a26.91,26.91,0,0,1,26.9,26.9V843.5a26.91,26.91,0,0,1-26.9,26.9H592.73a26.91,26.91,0,0,1-26.9-26.9V705A27,27,0,0,1,592.73,678.2Z" transform="translate(-51.93 -159.28)" style="fill:url(#linear-gradient)"/></g><path d="M596.43,681.7h212.1a25.59,25.59,0,0,1,25.6,25.6V844.8a25.59,25.59,0,0,1-25.6,25.6H596.43a25.59,25.59,0,0,1-25.6-25.6V707.3A25.59,25.59,0,0,1,596.43,681.7Z" transform="translate(-51.93 -159.28)" style="fill:#3e3f49"/><path d="M600,681.7h212.1a25.59,25.59,0,0,1,25.6,25.6V844.8a25.59,25.59,0,0,1-25.6,25.6H600a25.59,25.59,0,0,1-25.6-25.6V707.3A25.65,25.65,0,0,1,600,681.7Z" transform="translate(-51.93 -159.28)" style="fill:#535461"/><circle cx="666.5" cy="615.42" r="8.5" style="fill:#e0e0e0"/><path d="M254.83,833.3s9.6,26,8.8,32.8l7.6-.8s-12.8-22.9-9.6-32Z" transform="translate(-51.93 -159.28)" style="fill:#ffc107"/><path d="M294.13,835.5s-15.1-7.7-21.9-1.3-7.8,22.7-7.8,22.7S289,860.2,294.13,835.5Z" transform="translate(-51.93 -159.28)" style="fill:#ffc107"/><path d="M263.83,858.9s-15.1-5.1-22.4,8.2a24.32,24.32,0,0,0,.3,23.4c4.8,8.6,14.6,19.9,33.3,18.9,15.8-.8,21.1-12.9,22.5-24.2a24.84,24.84,0,0,0-32.9-26.6Z" transform="translate(-51.93 -159.28)" style="fill:#ffcd74"/><path d="M245,891.7a24.32,24.32,0,0,1-.3-23.4c7.3-13.3,22.4-8.2,22.4-8.2l.8-.3a24.83,24.83,0,0,1,17.8.4,24.4,24.4,0,0,0-20.9-2l-.8.3s-15.1-5.1-22.4,8.2a24.32,24.32,0,0,0,.3,23.4c3.2,5.7,8.5,12.5,17.1,16.2A36.41,36.41,0,0,1,245,891.7Z" transform="translate(-51.93 -159.28)" style="fill:#edb95d"/><path d="M256,865.3s5.6,4.4,19.2,0" transform="translate(-51.93 -159.28)" style="opacity:0.20000000298023224;isolation:isolate"/><path d="M254.83,833.3s9.6,26,8.8,32.8l7.6-.8s-12.8-22.9-9.6-32Z" transform="translate(-51.93 -159.28)" style="opacity:0.20000000298023224;isolation:isolate"/><path d="M294.13,835.5s-15.1-7.7-21.9-1.3-7.8,22.7-7.8,22.7S289,860.2,294.13,835.5Z" transform="translate(-51.93 -159.28)" style="fill:#ffcd74"/><path d="M264.43,856.9s4-19,29.7-21.4" transform="translate(-51.93 -159.28)" style="fill:none;stroke:#edb95d;stroke-miterlimit:10"/><path d="M567.53,249.2c0,25.2-15.3,28.7-45.7,28.7s-55.1-30.2-34.1-45.6C528.43,202.4,567.53,224,567.53,249.2Z" transform="translate(-51.93 -159.28)" style="fill:#ffc107;opacity:0.10000000149011612;isolation:isolate"/><g style="opacity:0.6899999976158142"><path d="M970.23,572.4h-56a9.13,9.13,0,0,0-9.1,9.1v38.3a9.13,9.13,0,0,0,9.1,9.1h56a9.13,9.13,0,0,0,9.1-9.1V581.5A9.13,9.13,0,0,0,970.23,572.4Zm5,47.4a4.91,4.91,0,0,1-4.9,4.9h-56a4.91,4.91,0,0,1-4.9-4.9V581.5a4.91,4.91,0,0,1,4.9-4.9h56a4.91,4.91,0,0,1,4.9,4.9v38.3Z" transform="translate(-51.93 -159.28)" style="fill:#ffcd74"/><path d="M951.93,600.2,970,583.9a2.06,2.06,0,1,0-2.7-3.1l-25,22.4-4.9-4.4h0l-.3-.3-19.9-17.8a2.06,2.06,0,1,0-2.7,3.1l18.4,16.4-18.3,17.1a2.05,2.05,0,0,0-.1,2.9,2.33,2.33,0,0,0,1.5.7,2,2,0,0,0,1.4-.6l18.5-17.4,5,4.5a1.87,1.87,0,0,0,1.4.5,2.39,2.39,0,0,0,1.4-.5l5.2-4.6,18.4,17.5a2,2,0,0,0,1.4.6,2,2,0,0,0,1.5-.6,2,2,0,0,0-.1-2.9Z" transform="translate(-51.93 -159.28)" style="fill:#ffcd74"/></g><path d="M518.73,190.3s2.1-.3,6-.7" transform="translate(-51.93 -159.28)" style="fill:none;stroke:#ede3d3;stroke-linecap:round;stroke-linejoin:round;stroke-width:3px"/><path d="M536.33,188.7c37.5-2.5,129.6-3.2,226.4,36.8,100.6,41.6,174.4,8,200-7.2" transform="translate(-51.93 -159.28)" style="fill:none;stroke:#ede3d3;stroke-linecap:round;stroke-linejoin:round;stroke-width:3px;stroke-dasharray:11.700499534606934,11.700499534606934"/><path d="M967.73,215.2c3.2-2.1,4.9-3.4,4.9-3.4" transform="translate(-51.93 -159.28)" style="fill:none;stroke:#ede3d3;stroke-linecap:round;stroke-linejoin:round;stroke-width:3px"/><path d="M980.93,400.5a23.88,23.88,0,0,1-19-19c0-.3-.3-.3-.6-.3a.29.29,0,0,0-.3.3,23.88,23.88,0,0,1-19,19c-.3,0-.3.3-.3.6a.29.29,0,0,0,.3.3,23.88,23.88,0,0,1,19,19c0,.3.3.3.6.3a.29.29,0,0,0,.3-.3,23.88,23.88,0,0,1,19-19c.3,0,.3-.3.3-.6A.29.29,0,0,0,980.93,400.5Z" transform="translate(-51.93 -159.28)" style="fill:#ffcd74;opacity:0.6899999976158142;isolation:isolate"/><path d="M1005.53,356.6a14.82,14.82,0,0,1-11.8-11.8c0-.2-.2-.2-.3-.2s-.2.2-.2.2a14.82,14.82,0,0,1-11.8,11.8c-.2,0-.2.2-.2.3a.2.2,0,0,0,.2.2,14.82,14.82,0,0,1,11.8,11.8c0,.2.2.2.3.2s.2-.2.2-.2a14.82,14.82,0,0,1,11.8-11.8c.2,0,.2-.2.2-.3S1005.63,356.6,1005.53,356.6Z" transform="translate(-51.93 -159.28)" style="fill:#ffcd74;opacity:0.6899999976158142;isolation:isolate"/><g style="opacity:0.6899999976158142"><path d="M958.93,178.8a4.23,4.23,0,0,0,2.2,4.4l29.4,16-3.4,21.9a2.23,2.23,0,0,0,1.1,2.2,4.88,4.88,0,0,0,.7.3,2.41,2.41,0,0,0,1.8-.4l13.6-10,13.5,14.2a4,4,0,0,0,2.2,1.2,4.25,4.25,0,0,0,4.8-2.5l26.9-63.8a2.19,2.19,0,0,0-.3-2.2,2.35,2.35,0,0,0-2.1-.8l-87,15.9A4.37,4.37,0,0,0,958.93,178.8Zm33.4,37.7,2.1-13.8,6.9,7.2Zm28.5,7.7-24.5-25.8,48.2-30.4Zm19.7-58.8-47.7,30.1-29.4-16Z" transform="translate(-51.93 -159.28)" style="fill:#ffcd74"/></g><path d="M707.33,371.7a66.8,66.8,0,1,0,66.8,66.8A66.79,66.79,0,0,0,707.33,371.7Zm2.8,127.6V487.6a2.9,2.9,0,1,0-5.8,0v11.7a61,61,0,0,1-58-58H658a2.9,2.9,0,1,0,0-5.8h-11.7a61,61,0,0,1,58-58v11.7a2.9,2.9,0,0,0,5.8,0V377.5a61,61,0,0,1,58,58h-11.7a2.9,2.9,0,1,0,0,5.8h11.7A60.89,60.89,0,0,1,710.13,499.3Z" transform="translate(-51.93 -159.28)" style="fill:#ffcd74"/><path d="M737.53,465.1l-27.3-27.8V408.4a2.9,2.9,0,0,0-5.8,0v30.1a2.79,2.79,0,0,0,.8,2l28.2,28.6a2.87,2.87,0,0,0,4.1,0A2.75,2.75,0,0,0,737.53,465.1Z" transform="translate(-51.93 -159.28)" style="fill:#ffcd74"/></svg>