
<svg xmlns="http://www.w3.org/2000/svg" width="2470.406" height="2996.741" viewBox="0 0 2470.406 2996.741">
  <g id="zinbee-logo-orange" transform="translate(651.172 -39.993) rotate(43)" opacity="0.39">
    <path id="Path_1583" d="M630.678,726.439H245.62V675.522L516.909,340.806H252.957V277.92H623.308v51.56L350.9,663.621H630.678Z" transform="translate(408.293 462.389)" fill="#ffb94a"/>
    <path id="Path_1584" d="M387.71,726.439V277.92h87.905V726.439Z" transform="translate(746.604 462.389)" fill="#ffb94a"/>
    <path id="Path_1585" d="M904.144,726.439H796.291l-264.7-357.4h-2.942l1.826,19.948q5.173,57.071,5.173,104.3V726.574H455.76V277.92H562.531L826.483,633.5h2.2c-.507-4.7-1.454-21.841-2.941-51.391s-2.2-52.608-2.2-69.174V277.92h80.6Z" transform="translate(908.629 462.389)" fill="#ffb94a"/>
    <path id="Path_1586" d="M630.41,277.92H790.195q111.166,0,160.7,27.048t49.5,85.268q0,39.321-24.309,65.354t-69.817,32.795v3.043q56.631,8.926,83.375,35.129t26.675,71q0,60.452-50.714,94.667T824.782,726.439H630.41Zm87.9,185.311h84.693q55.246,0,80.6-14.572t25.425-49.565q0-31.612-27.419-45.711t-86.925-14.1H718.383Zm0,59.5v142h93.518q55.211,0,83.408-17.649t28.129-55.651q0-34.993-28.7-51.864t-87.229-16.9Z" transform="translate(1324.464 462.389)" fill="#ffb94a"/>
    <path id="Path_1587" d="M1081.957,726.439H777.67V277.92h304.287v61.973H865.575v122.12h202.858v61.331H865.575V664.161h216.382Z" transform="translate(1675.085 462.389)" fill="#ffb94a"/>
    <path id="Path_1588" d="M1206.417,726.439H902.13V277.92h304.287v61.973H990.036v122.12h202.858v61.331H990.036V664.161h216.382Z" transform="translate(1971.42 462.389)" fill="#ffb94a"/>
    <path id="Path_1589" d="M965.544,341.415v-175L807.281,75.13h0v16.9h0l143.556,82.8V340.5L807.349,423.336l-151.535-87.5L497.585,427.122,354.13,344.289,195.867,435.575V618.147L52.21,701.386V883.958l158.229,91.286L368.6,883.958l143.826,83.307,158.229-91.286V693.407h0l135.509-78.235L957.6,702.367l158.263-91.286V428.509Zm-453.286,94.4,143.488-82.834,143.725,82.969V601.614l-143.59,82.9-143.454-82.8V436.048h-.169ZM354.2,361.43l143.59,82.834V609.931h0L354.232,692.8,210.574,610.1V444.433ZM210.405,958.543,66.85,875.641V709.974l143.556-83.036,143.623,82.935V875.54Zm445.578-91.286-143.556,83.1-143.59-82.935V701.758l143.59-82.9,143.59,82.9ZM1101.29,602.426l-143.691,83-143.59-82.9V436.86L957.6,353.823l143.624,82.9Z" transform="translate(-52.21 -20.447)" fill="#ffb94a"/>
    <path id="Path_1590" d="M217.92,59.48c.406,7.337.811,14.606,1.285,21.807,97,1.014,163.876,45.609,201.573,134.9l20.556-7.3C409.384,114.117,313.7,52.583,217.92,59.48Z" transform="translate(342.34 -58.96)" fill="#ffb94a" fill-rule="evenodd"/>
    <path id="Path_1591" d="M219,78.191c.372,7.269.812,14.572,1.183,22.314A138.619,138.619,0,0,1,358.33,192.84l21.1-7.4C358.938,118.7,285.673,71.362,219,78.191Z" transform="translate(344.911 -14.717)" fill="#ffb94a" fill-rule="evenodd"/>
    <path id="Path_1592" d="M220,96.773c.372,7.235.778,14.5,1.251,22.112a76.106,76.106,0,0,1,46.184,12.882,77.153,77.153,0,0,1,29.245,37.461c7.472-2.6,14.369-5.071,21.232-7.506C303.476,116.924,255.23,91.567,220,96.773Z" transform="translate(347.292 29.485)" fill="#ffb94a" fill-rule="evenodd"/>
    <path id="Path_1593" d="M233.668,149.57l-4.767-4.463A36.935,36.935,0,0,1,224.742,140c-6.525-8.858-18.764-25.459-44.392-27.961l.642-6.424c26.27,2.57,40.064,18.731,47.334,28.333-.169-31.578-18.934-47.334-19.813-47.976l4.057-5c1.048.845,25.7,21.2,21.74,62.075Z" transform="translate(252.887 -6.542)" fill="#ffb94a"/>
    <path id="Path_1594" d="M255.2,155.989c11.766-20.286,7.032-45.068-10.583-55.245s-41.451-2.029-53.183,18.325-7,45,10.582,55.211S243.471,176.275,255.2,155.989Z" transform="translate(263.945 30.112)" fill="#ffb94a"/>
    <path id="Path_1595" d="M198.736,87.617a5.917,5.917,0,1,1-4.125-7.709,6.153,6.153,0,0,1,4.125,7.709Z" transform="translate(269.291 -9.504)" fill="#ffb94a"/>
    <path id="Path_1596" d="M190.258,95.082a5.917,5.917,0,1,1-4.159-7.709,6.154,6.154,0,0,1,4.159,7.709Z" transform="translate(249.099 8.288)" fill="#ffb94a"/>
    <path id="Path_1597" d="M227.33,121.78Z" transform="translate(364.745 90.626)" fill="#ffb94a"/>
    <path id="Path_1598" d="M216.49,108.4Z" transform="translate(338.935 58.768)" fill="#ffb94a"/>
    <path id="Path_1599" d="M259.119,110.886c.473,0-11.8-.811-20.015-.71,0,0-3.618,28.1-39.794,45.406a104.612,104.612,0,0,0,11.123,23.667C260.573,154.163,259.119,110.886,259.119,110.886Z" transform="translate(298.03 62.976)" fill="#ffb94a"/>
    <path id="Path_1600" d="M292.472,123.131A110.354,110.354,0,0,0,262.99,111.5c-11.664,66.1-56.395,82.834-56.53,82.834a125.3,125.3,0,0,0,24.174,22.078c45.981-17.885,61.838-93.382,61.838-93.382" transform="translate(315.054 66.149)" fill="#ffb94a"/>
    <path id="Path_1601" d="M303.009,182.349S311.53,148,278.937,118.99c-11.225,65.625-52.878,91.286-58.457,91.523A81.146,81.146,0,0,0,248,214.84c17.311-2.13,38.915-7.911,45-18.054,18.223,17.547,48.855,29.414,48.855,29.414Z" transform="translate(348.435 83.983)" fill="#ffb94a"/>
    <path id="Path_1602" d="M129.758,238.618h22.281c1.927-18.257-2.806-37.833,14.809-50.072,13.017-9.061,27.656-5.917,42.8-4.97v23.667c-29.786,4.429-30.226,4.936-26.338,31.037h25.763c-1.217,9.872-2.231,18.325-3.381,27.386l-23.362,1.014v68.363H152.951V266.984l-23.261-1.454Z" transform="translate(132.267 234.663)" fill="#ffb94a" fill-rule="evenodd"/>
    <path id="Path_1603" d="M170,377.978l38.678-10.143-26.811-20.894,1.623-3.145,8.047-2.029c-10.887-6.491-18.832-14.5-19.508-28.6l10.143,1.217c-9.365-11.9-14.2-24.039-5.342-38.949,16.431,17.919,36.007,29.042,60.688,30.9a121.194,121.194,0,0,1,2.468-14.5c5.173-17.953,25.56-28.5,41.484-19.406,10.346,5.917,18.663,6.12,29.786,1.758l-7.945,12.611,10.143-1.488c-15.755,10.312-12,27.758-16.195,42.127C281.1,383.083,214.595,409.083,170,377.978Z" transform="translate(228.244 441.378)" fill="#ffb94a" fill-rule="evenodd"/>
    <path id="Path_1604" d="M151.763,270.63c18.325.778,36.616,1.454,54.941,2.434,14.031.744,22.281,6.965,23.058,20.962a551.6,551.6,0,0,1,0,66.03c-.913,14.437-8.25,20.928-22.788,21.3-35.5.981-71,1.454-106.534.778-18.764-.372-25.966-8.689-26.608-27.758-.642-17.919-.575-35.872,0-53.791.71-20.049,11.225-28.84,27.487-27.927,16.9.913,33.81.2,50.478.2Zm-14.91,33.81v43.073l40.977-21.74Z" transform="translate(-1.817 445.032)" fill="#ffb94a" fill-rule="evenodd"/>
    <path id="Path_1608" d="M269.734,183.971c-6.525,4.5-13.524,8.52-19.61,13.524-28.13,23.667-30.429,61.872-7.844,87.567,4.192,4.767,2.739,11.394-3.381,16.9-1.657,1.488-3.618,2.671-5.173,4.294a5.1,5.1,0,0,0-1.691,3.55c0,.71,1.995,1.657,3.144,1.758a30.429,30.429,0,0,0,19.88-3.854,17.446,17.446,0,0,1,17.209-1.589c27.825,10.819,54.1,7.4,78.946-8.993a7.029,7.029,0,0,1,1.082-.338,26.407,26.407,0,0,1-5.748,16.06,30.834,30.834,0,0,1-25.8,13.253H245.695a31.849,31.849,0,0,1-33.1-32.559q-.27-38.34,0-76.646a32.086,32.086,0,0,1,33.472-33.1C254.08,183.937,262.059,183.971,269.734,183.971Z" transform="translate(329.34 238.224)" fill="#ffb94a" fill-rule="evenodd"/>
    <path id="Path_1609" d="M233.493,224.862h12.07c2.333,0,5.173,0,5.139,3.381s-2.57,3.381-5.105,3.381H229.335a6.288,6.288,0,0,1-4.564-2.265,5.984,5.984,0,0,1,.879-5c4.666-7.134,9.6-14.1,14.978-21.841h-11.7c-2.3,0-4.6,0-4.5-3.077s2.367-3.077,4.666-3.043h15.857c1.521,0,3.854.777,4.26,1.826a6.323,6.323,0,0,1-.845,5.038C243.738,210.459,238.8,217.289,233.493,224.862Z" transform="translate(357.838 268.265)" fill="#ffb94a" fill-rule="evenodd"/>
    <path id="Path_1610" d="M250.175,200.75c2.5-.44,4.666-1.454,5.917-.812s1.758,2.975,1.826,4.632c.237,5.308.27,10.616,0,15.89a6.762,6.762,0,0,1-2.1,4.97c-1.082.642-3.381-.676-5.815-1.318a11.022,11.022,0,0,1-14.673-2.6,15.755,15.755,0,0,1,1.183-19.069,10.143,10.143,0,0,1,13.659-1.69Zm.845,12a5.883,5.883,0,1,0-11.5,0c0,4.023,2.232,6.762,5.511,6.762s5.917-2.569,5.984-6.627Z" transform="translate(377.468 274.12)" fill="#ffb94a" fill-rule="evenodd"/>
    <path id="Path_1611" d="M243.877,212.786a12.915,12.915,0,0,1,12.577-13.9,14.1,14.1,0,0,1,12.814,14.065,12.949,12.949,0,0,1-12.713,13.017,12.273,12.273,0,0,1-12.678-13.186Zm17.851-.271c0-4.5-1.927-7-5.274-6.965a6.762,6.762,0,0,0-5.815,7.235,6.356,6.356,0,0,0,5.714,6.762c3.618,0,5.41-2.333,5.376-7.168Z" transform="translate(404.052 274.222)" fill="#ffb94a" fill-rule="evenodd"/>
    <path id="Path_1612" d="M247.852,214.606v14.707c0,2.265-.406,4.4-3.381,4.4s-3.381-1.893-3.381-4.294V200.034c0-2.333.473-4.4,3.381-4.463s3.381,2.062,3.381,4.328C247.886,204.8,247.852,209.737,247.852,214.606Z" transform="translate(397.507 266.316)" fill="#ffb94a" fill-rule="evenodd"/>
  </g>
</svg>
