<svg id="Layer_1" data-name="Layer 1" xmlns="http://www.w3.org/2000/svg" viewBox="0 0 17.64 17.64"><title>image</title><path id="Path_2" data-name="Path 2" d="M5.64,7.7A2.43,2.43,0,1,1,8.06,5.28,2.42,2.42,0,0,1,5.64,7.7Zm0-3.85A1.43,1.43,0,1,0,7.06,5.28,1.43,1.43,0,0,0,5.64,3.85Z" transform="translate(-0.07 -0.02)"/><path id="Path_1" data-name="Path 1" d="M14.2,0H3.57a3.51,3.51,0,0,0-3.5,3.5V14.16a3.5,3.5,0,0,0,3.5,3.5H14.2a3.5,3.5,0,0,0,3.5-3.5V3.52A3.51,3.51,0,0,0,14.2,0ZM3.57,1H14.2a2.51,2.51,0,0,1,2.5,2.5v8.94a11.8,11.8,0,0,0-6.1-2.58c-3-.2-7.77,2-9.53,2.94V3.52A2.51,2.51,0,0,1,3.57,1ZM14.2,16.66H3.57a2.5,2.5,0,0,1-2.5-2.5V14c1.08-.56,6.41-3.26,9.47-3.07,2.76.17,5.34,2.17,6.16,2.86v.42A2.5,2.5,0,0,1,14.2,16.66Z" transform="translate(-0.07 -0.02)"/></svg>