<svg id="Layer_1" data-name="Layer 1" xmlns="http://www.w3.org/2000/svg" viewBox="0 0 17.64 17.64"><title>smile</title><path d="M5.33,10.06a.51.51,0,0,0-.27.65,4.09,4.09,0,0,0,3.83,2.44,4.1,4.1,0,0,0,3.8-2.43.5.5,0,0,0-.91-.39,3.11,3.11,0,0,1-2.89,1.82A3.08,3.08,0,0,1,6,10.33.5.5,0,0,0,5.52,10,.43.43,0,0,0,5.33,10.06Z" transform="translate(-0.06 -0.1)"/><path d="M6.62,7.54a1,1,0,1,0-1-1A1,1,0,0,0,6.62,7.54Z" transform="translate(-0.06 -0.1)"/><path d="M12.32,6.51a1,1,0,1,0-1,1A1,1,0,0,0,12.32,6.51Z" transform="translate(-0.06 -0.1)"/><path id="_Path_" data-name="&lt;Path&gt;" d="M8.88,17.74A8.82,8.82,0,1,1,17.7,8.92,8.82,8.82,0,0,1,8.88,17.74Zm0-16.64A7.82,7.82,0,1,0,16.7,8.92,7.83,7.83,0,0,0,8.88,1.1Z" transform="translate(-0.06 -0.1)"/></svg>