<svg xmlns="http://www.w3.org/2000/svg" width="242.415" height="342.425" viewBox="0 0 242.415 342.425">
  <defs>
    <style>
      .cls-1 {
        fill: #c3e0ed;
      }

      .cls-2 {
        fill: #fff;
      }

      .cls-3 {
        fill: #ffb94a;
      }

      .cls-4 {
        fill: none;
        stroke: #000;
        stroke-miterlimit: 10;
        stroke-width: 12px;
      }
    </style>
  </defs>
  <g id="chatBee-sad-character" transform="translate(-357.359 -71.375)">
    <g id="XMLID_29_">
      <g id="XMLID_39_">
        <path id="XMLID_90_" class="cls-1" d="M466.6,167.3c5-6.9,10.6-13.4,17.7-17.2a26.305,26.305,0,0,1,24-.9c8.1,3.9,15,13.4,15.6,23.2.5,9-4.1,16.3-8.7,22.5a184.023,184.023,0,0,1-46,43.5c-.8.5-1.6,1-2.5.6a4.742,4.742,0,0,1-1.8-1.9c-3.5-5.8-3.8-13-4-19.6-.5-18-.8-36.9,6.4-51.5"/>
      </g>
      <g id="XMLID_10_">
        <g id="XMLID_98_">
          <path id="XMLID_58_" d="M465.7,260.1c-2.5-2.4-1.4-7.6-1.3-10.7.2-5.9.6-11.8,1-17.8.8-11,2-21.9,3.5-32.8,2.5-17.5,5.9-37.7,20.8-49.3,6-4.7,13.8-7.5,21.5-5.7,6.5,1.5,12.8,5.8,14.7,12.5,2.5,9-2.2,20.1-6.1,28.1a121.15,121.15,0,0,1-15.9,24.1c-14.4,17.4-31.7,32.1-45.9,49.6-4.8,5.9,3.6,14.5,8.5,8.5,15.3-18.8,34.1-34.5,49.1-53.6a126.064,126.064,0,0,0,17.3-28.6c4.2-10.1,7.9-22.3,4.1-33.1-6.9-19-30.3-24.2-47.1-15.9-19.8,9.8-27.7,32-31.2,52.4-2.4,14.5-4,29.1-5.1,43.8-.5,7.2-1,14.5-1.2,21.7-.1,5.7.7,11.2,4.9,15.3,5.4,5.4,13.9-3.1,8.4-8.5Z"/>
        </g>
      </g>
      <path id="XMLID_76_" class="cls-2" d="M541.5,171.9c-10.1,6.4-19.2,15.3-27.5,23.8a229.691,229.691,0,0,0-23.3,27.9,234.058,234.058,0,0,0-26.9,49.7c6.4-5.1,14.8-8.2,22.2-11.2,13.7-5.6,27.6-10.6,41.1-16.5a240.55,240.55,0,0,0,34.2-17.7c9.4-6,19.4-13.4,24.2-23.8C597.1,178.5,561.9,158.9,541.5,171.9Z"/>
      <g id="XMLID_37_">
        <path id="XMLID_89_" class="cls-1" d="M552.7,243.8c7.9-6.2,15.7-13,20.3-21.9,8.9-16.9,8.3-21,5.2-31.8-1.6-5.7-13.3-14.8-23.4-15.1-9.3-.3-17.5,5.4-24.6,11.2A259.89,259.89,0,0,0,478.7,243c-.6.9-1.3,2-1,3.1a3.92,3.92,0,0,0,1.7,2.1c5.6,4,13.1,4.2,20,4.2,18.8,0,38.5-.2,54.7-9.4"/>
      </g>
      <g id="XMLID_32_">
        <g id="XMLID_92_">
          <path id="XMLID_38_" d="M458.4,288.3a232.052,232.052,0,0,1,32.3-64.7A229.689,229.689,0,0,1,514,195.7c8.4-8.5,17.4-17.4,27.5-23.8,20.4-13,55.6,6.6,43.9,32.1-4.8,10.4-14.8,17.8-24.2,23.8A240.548,240.548,0,0,1,527,245.5c-13.6,5.9-27.4,10.9-41.1,16.5-11.5,4.7-25.3,9.5-30.6,21.9-3,7,7.3,13.1,10.4,6.1,5-11.6,20.9-15.4,31.6-19.7,13.6-5.4,27.3-10.6,40.6-16.6,13.1-5.9,26.1-12.6,37.7-21.3,10-7.4,19.5-17,22.9-29.3,7.8-28.4-21.7-50.9-48-47.4-13.3,1.8-24.2,12.2-33.9,20.8A244.434,244.434,0,0,0,446.9,285c-2.4,7.5,9.1,10.7,11.5,3.3Z"/>
        </g>
      </g>
    </g>
    <g id="XMLID_15_">
      <path id="XMLID_35_" class="cls-2" d="M578.3,280c-10-17.9-27.8-26.7-45.7-23.2-35.3,6.8-60.4,26.8-75.7,59.7C490.1,280.7,531.6,272.4,578.3,280Z"/>
      <path id="XMLID_40_" class="cls-2" d="M440.2,300.7c13.3-13.9,28.4-29.7,41.8-43.6C457.2,259.2,442.8,274,440.2,300.7Z"/>
      <path id="XMLID_41_" class="cls-2" d="M469.6,374h60.6c-3.9,6-5.7,8.5-7.8,11.6,5.8,3.2,10.8,6,16.7,9.2.6-7.6,1-13.1,1.5-18.8,21.8-3.7,37.5-14,44.2-36.6C544.8,318.5,490,334,469.6,374Z"/>
      <path id="XMLID_79_" class="cls-2" d="M578.7,296.8c-38.8-9.9-81.9,6.3-105,40.1,33.9-27.8,71.9-29.1,111.7-17.4C587.6,299.3,587.5,299.1,578.7,296.8Z"/>
    </g>
    <path id="XMLID_42_" class="cls-3" d="M503.4,259.7s41.1,3.3,52.3,23.3c11.2,20.1,12.1,28.9,11.2,42s-5.6,34.1-21.9,60.7-9.7,15.4-9.7,15.4l-31.9-19.6-33.8-3.3-20.8-24.7-2.3-47.6Z"/>
    <path id="XMLID_16_" d="M550.5,385.7v28.1c-13.7-7.8-25.3-15.1-37.6-21.2-6.4-3.2-13.8-6.1-20.8-6.1-38.6,0-65.6-28.3-62.8-64.6,1.3-17-1.9-34.5,9-49.9,11.2-15.8,25.7-25.5,45.4-25.8,19.6-.3,39.2-.5,58.8,0,26.9.8,49.1,20.1,52.9,46.7a169.606,169.606,0,0,1,1.1,39C594.1,358.9,580.9,373.8,550.5,385.7Zm34.2-46.4c-39.9-21-94.7-5.3-115.2,34.5h60.6c-3.9,5.8-5.7,8.6-7.8,11.7,5.8,3.2,10.8,6,16.7,9.3.6-7.6,1-13.1,1.5-18.8C562.3,372.4,578,362,584.7,339.3ZM456.9,316.5c33.2-35.8,74.7-44.1,121.4-36.5-10-17.9-27.8-26.7-45.7-23.2C497.3,263.5,472.2,283.6,456.9,316.5Zm16.8,20.4c33.9-27.8,71.9-29.1,111.7-17.4,2.2-20.1,2.1-20.4-6.7-22.6C540,287,496.9,303.1,473.7,336.9Zm8.3-79.8c-24.8,2-39.1,16.9-41.8,43.6C453.5,286.8,468.7,271,482,257.1Z"/>
    <g id="XMLID_4_">
      <g id="XMLID_54_">
        <path id="XMLID_12_" d="M498.3,83.7c-6-2.1-11.5,2.1-13.3,7.7a13.819,13.819,0,0,0,3.3,14.8c7.6,7.2,23.5,6.2,26.1-5.3,1.2-5.5.4-11.6-4.3-15.2-4.4-3.4-11.3-3.8-16.5-2.2-6.2,1.9-6.2,9.1-3.4,13.8a9.316,9.316,0,0,0,7.1,4.7,7.512,7.512,0,0,0,3.3-.4,5.291,5.291,0,0,0,2.1-1.1c1.3-1,1.5-1.1.5-.4-1.4-.2-2.8-.4-4.2-.5a2.01,2.01,0,0,1,.8.4c2.7,1.2,5.8.8,7.4-1.9,1.4-2.3.7-6.2-1.9-7.4-1.9-.8-3.4-1.3-5.5-.8-.2.1-3,1-2.9,1.5.9.1,1.8.3,2.6.4-.1-.4-.3-.7-.4-1.1-2.4,2.3-2.7,3.3-1,2.9a7.084,7.084,0,0,1,1.4-.1c1,0,2.4-.2,3.3.3,1.5.7,1.4,1.7,1.3,3.4-.2,1.5-.1,2-1.3,2.5s-3.6.2-4.8-.1a4.189,4.189,0,0,1-3-2.2,6.01,6.01,0,0,1,.5-3.3c6.5,2.3,9.4-8.2,2.8-10.4Z"/>
      </g>
    </g>
    <path id="XMLID_8_" class="cls-4" d="M412,182.8"/>
    <path id="XMLID_7_" class="cls-4" d="M394.7,184.2"/>
    <path id="XMLID_9_" class="cls-4" d="M464.1,190.1"/>
    <path id="XMLID_3_" class="cls-4" d="M446.6,185.3"/>
    <g id="XMLID_5_">
      <g id="XMLID_34_">
        <path id="XMLID_27_" d="M399.2,92.7c9.6,2.6,14.2,11.9,16.8,20.8a89,89,0,0,1,3.1,31.7c-.6,7.7,11.4,7.7,12,0,1.7-22.2-3.1-57.1-28.7-64-7.5-2.1-10.6,9.5-3.2,11.5Z"/>
      </g>
    </g>
    <g id="XMLID_6_">
      <g id="XMLID_46_">
        <path id="XMLID_20_" d="M488.1,100.9c-10.3,4.6-21.2,5.9-28.5,15.4-7.5,9.8-11.1,22.2-12.5,34.3-.9,7.7,11.1,7.6,12,0,1.1-9.6,4.3-20.9,11-28.3,5.9-6.5,16.3-7.7,24-11.1,7.1-3,1-13.4-6-10.3Z"/>
      </g>
    </g>
    <path id="XMLID_85_" class="cls-2" d="M477.3,171.7c-3.2-3.2-7.7-5.3-12.1-7.1a109.914,109.914,0,0,0-40.8-8.4c-15.1,0-28.9,3.8-39.9,11.4l-3.1,2.2a23.118,23.118,0,0,0-7.6,8.9c-2.6,5.7-3.4,12.5-3.9,19-.9,10.8-1.5,23.2,3.7,33.1,6.2,11.8,20.3,19.7,42.1,23.6,15.8,2.9,28.3,3,39.3.5,13.3-3,24.2-10.3,30.1-20.1,10.5-17.5,3.9-39.9-1-51.7C482.3,179,480.3,174.8,477.3,171.7Z"/>
    <g id="XMLID_36_">
      <path id="XMLID_103_" class="cls-3" d="M382,164.2c-5.3,5.3-10.7,10.8-13.4,17.8-2.3,6-2.4,12.5-2.4,19a99.128,99.128,0,0,0,1,16.3,116.9,116.9,0,0,0,3,12,29.837,29.837,0,0,0,1.8,5c2.6,5,8,7.7,12.2,11.4a33.456,33.456,0,0,0,5.1,4.2,22.248,22.248,0,0,0,5.6,2.1,165.512,165.512,0,0,0,18.5,4.3,157.722,157.722,0,0,0,18.2,1.6c6.8.4,13.7.7,20.5,1.1,4,.2,8,.4,11.9-.6a25.457,25.457,0,0,0,7.5-3.4c9.8-6.2,16.3-17,19.1-28.3,2.7-11.3,2-23.3-.2-34.7-.8-3.9-1.8-7.9-4.5-10.9-2.6-2.9-6.4-4.4-10.1-5.7-28.6-10.1-59.1-15.9-89.4-13.5-1.9.2-4.4.8-4.6,2.7"/>
    </g>
    <path id="XMLID_68_" d="M495.1,178.6c-2.1-5-4.8-10.8-9.3-15.3-4.7-4.7-10.5-7.5-16.1-9.7-33.5-13.6-67.5-12.2-91.2,3.7h0a3.508,3.508,0,0,1-.8.5l-.4.3-.6.4h0l-2.1,1.5A34.319,34.319,0,0,0,363,173.8c-3.4,7.5-4.3,15.5-5,23-1.2,13.4-1.3,27.5,5,39.7,8,15.2,25,25.3,50.6,29.9a144.668,144.668,0,0,0,24.9,2.5,83.692,83.692,0,0,0,19.2-2.1c16.5-3.7,30.2-13.1,37.7-25.6C508.5,219,500.8,192.5,495.1,178.6ZM485,234.9c-5.8,9.7-16.8,17.1-30.1,20.1-11,2.5-23.5,2.3-39.3-.5-21.8-3.9-35.9-11.9-42.1-23.6-5.2-9.9-4.6-22.2-3.7-33.1.6-6.5,1.3-13.3,3.9-19a22.42,22.42,0,0,1,7.6-8.9l3.1-2.2c11-7.6,24.8-11.4,39.9-11.4a109.915,109.915,0,0,1,40.8,8.4c4.4,1.8,8.9,3.9,12.1,7.1,3,3.1,5,7.3,6.8,11.5C488.9,194.9,495.5,217.4,485,234.9Z"/>
    <g id="XMLID_2_">
      <g id="XMLID_59_">
        <path id="XMLID_14_" d="M389.5,72.1c-3.9,2-7.2,4.8-8.1,9.3s-.3,9.9,3.7,12.7c7.4,5.2,17.7,4.7,22.4-3.7,1.8-3.3,2.9-7.7,1.9-11.4-1.1-4.5-5.4-6.6-9.6-7.3-4.3-.7-8.9-.6-11.3,3.7-2.3,4-1.2,9.1.8,13,3.3,6.1,12.6.7,9.3-5.5a3.486,3.486,0,0,1-.6-1.7c.2-1.5-.5-1.2-2.2.9a16.413,16.413,0,0,1,2.3.2c1.3.7,1.6.5.8-.5a6.214,6.214,0,0,1-1.6,4.3c-1.6,1.5-4.4.3-5.9-.7.5,1.5.7,1.4.4-.1a7.412,7.412,0,0,1,.1-2.1c.5-.8,2.1-1.4,2.9-1.7,6.4-3.2.9-12.5-5.3-9.4Z"/>
      </g>
    </g>
    <g id="XMLID_11_">
      <g id="XMLID_64_">
        <path id="XMLID_18_" d="M396.1,173.8a9.67,9.67,0,0,0,1.6,14.5,11.077,11.077,0,0,0,14.3-2.2c3.4-4.2,3.9-10.5-.1-14.4-3.6-3.5-10.2-3.7-13.6.2-1.9,2.2-2.2,5.5,0,7.6,1.9,1.9,5.7,2.2,7.6,0,.6-.7-.2,0-.4.1-.4.1-.4.1.1,0-.2,0-.4.1-.6.1,1.1.1-.7-.1,0,0,.5.1-.5-.3-.7-.5.6.4.1.1-.1-.3-.4-.5.2,1.1-.1-.3.2,1-.3-.3-.1.2h0c.1-.4.1-.3-.2.2l.3-.3-.3.3c.4-.3.5-.3.1-.1-.3.2-.3.2.1,0-.2.2-.7.3-.1.1h-.3c.3.1.3,0,0,0-.4-.1-.3-.1.1,0,.1.1.2.2.3.2.2.2.4,1.1.4.6-.1-.6-.2.9,0-.1a2.168,2.168,0,0,1-.5,1.4,5.464,5.464,0,0,0,0-7.6c-2.2-1.7-5.8-1.9-7.8.3Z"/>
      </g>
    </g>
    <g id="XMLID_13_">
      <g id="XMLID_69_">
        <path id="XMLID_28_" d="M454.7,178.8a10.78,10.78,0,0,0-7.3,12.5,9.55,9.55,0,0,0,11.9,7.1c5.3-1.4,8.8-6.7,7.1-12-1.6-5.3-7.2-8.1-12.4-8.2a5.509,5.509,0,0,0-5.4,5.4A5.442,5.442,0,0,0,454,189h.9c-.7-.1-.7-.1-.1,0,.3.1,1.5.6.4.1a7.46,7.46,0,0,1,1.2.7c-.5-.4-.5-.4-.1,0-.4-.6-.4-.6-.1-.1-.1-.2-.1-.4-.2-.5.2.6.2.5,0-.2-.3,1.2.2-.6.3-.9-.3.5-.2.4.2-.2-.4.4-.3.3.2-.1-.5.2-1.2.3-.1.1-1.1.2,1,.3,0,.1-.6,0-.5,0,.3.1h0c.4.2.4.2,0-.1a1.962,1.962,0,0,1,.9.9c-.7-1,.4,1,0-.1.1.8.1.9.1.3V189c-.1.5,0,.4.1,0,.2-.6.2-.5-.1.2.8-1-.9.7.1-.2.4-.4.4-.4-.2.1.5-.3.5-.2-.2.1,2.7-.8,4.7-3.8,3.8-6.6-1-2.7-3.8-4.7-6.7-3.8Z"/>
      </g>
    </g>
    <g id="XMLID_63_">
      <g id="XMLID_88_">
        <path id="XMLID_25_" d="M407.8,231.6c5.1-4.4,10.8-9,17.8-5.8,5.6,2.5,8.9,8.1,11.4,13.5,2.7,5.8,11.3.8,8.6-5-3.8-8.3-10-16.1-19.1-18.7-10.1-3-18.5,2.7-25.8,9.1-4.8,4.1,2.3,11.1,7.1,6.9Z"/>
      </g>
    </g>
  </g>
</svg>
