<svg xmlns="http://www.w3.org/2000/svg" width="185.7" height="94.115" viewBox="0 0 185.7 94.115">
  <defs>
    <style>
      .cls-1 {
        fill: #ffb94a;
      }
    </style>
  </defs>
  <g id="passwordreset--form-logo" transform="translate(-62.5 4.115)">
    <path id="XMLID_16_" d="M72.9,86.2h6.8a1.974,1.974,0,0,1,1.4.6,1.76,1.76,0,0,1,.6,1.3,1.612,1.612,0,0,1-.6,1.3,1.816,1.816,0,0,1-1.4.6H72.6a5.409,5.409,0,0,1-2.8-.9,5.263,5.263,0,0,1-2-1.9l-4.4-8.4a8.393,8.393,0,0,1-.9-3.7,8.744,8.744,0,0,1,.8-3.7l4.4-8.3a5.686,5.686,0,0,1,2-2.1,4.545,4.545,0,0,1,2.6-.9h7.5a1.612,1.612,0,0,1,1.3.6,1.76,1.76,0,0,1,.6,1.3,2.389,2.389,0,0,1-.5,1.4,1.76,1.76,0,0,1-1.3.6H72.7a1.8,1.8,0,0,0-1.5,1.1L67,72.8a4.767,4.767,0,0,0-.5,2.2,5.214,5.214,0,0,0,.5,2.3L71,85A1.961,1.961,0,0,0,72.9,86.2Z"/>
    <path id="XMLID_18_" d="M90.3,88.1V62a1.76,1.76,0,0,1,.6-1.3,1.656,1.656,0,0,1,1.3-.5,1.612,1.612,0,0,1,1.3.6,1.76,1.76,0,0,1,.6,1.3v9.5l3-2a6.9,6.9,0,0,1,3.7-1.3h2.3a5.229,5.229,0,0,1,4,1.7,5.439,5.439,0,0,1,1.7,4l.5,14.1a1.9,1.9,0,0,1-.5,1.3,1.76,1.76,0,0,1-1.3.6,1.612,1.612,0,0,1-1.3-.6,2.232,2.232,0,0,1-.6-1.3L105,73.9a1.612,1.612,0,0,0-.6-1.3,1.76,1.76,0,0,0-1.3-.6H101a2.9,2.9,0,0,0-1.6.6L94,76.1v12a1.612,1.612,0,0,1-.6,1.3,1.76,1.76,0,0,1-1.3.6,1.612,1.612,0,0,1-1.3-.6A1.656,1.656,0,0,1,90.3,88.1Z"/>
    <path id="XMLID_20_" d="M123.7,76.3h7.4a8.205,8.205,0,0,1,1.8.3V73.9a1.612,1.612,0,0,0-.6-1.3,1.656,1.656,0,0,0-1.3-.5h-7.2a1.612,1.612,0,0,1-1.3-.6,2.232,2.232,0,0,1-.6-1.3,1.612,1.612,0,0,1,.6-1.3,1.656,1.656,0,0,1,1.3-.5H131a5.351,5.351,0,0,1,4,1.6,5.439,5.439,0,0,1,1.7,4l.5,14.1a1.612,1.612,0,0,1-.6,1.3,1.76,1.76,0,0,1-1.3.6,1.974,1.974,0,0,1-1.4-.6,1.76,1.76,0,0,1-.6-1.3L130.1,90h-6.4a5.439,5.439,0,0,1-4-1.7,5.606,5.606,0,0,1-1.7-4V82a5.807,5.807,0,0,1,5.7-5.7Zm9.4,7.4-.1-1.6a1.612,1.612,0,0,0-.6-1.3,2.106,2.106,0,0,0-1.3-.5h-7.4a1.612,1.612,0,0,0-1.3.6,1.76,1.76,0,0,0-.6,1.3v2.1a1.612,1.612,0,0,0,.6,1.3,1.76,1.76,0,0,0,1.3.6H129Z"/>
    <path id="XMLID_23_" d="M159.1,89.9h-3.8a5.807,5.807,0,0,1-5.7-5.7V72h-1.9a1.9,1.9,0,0,1-1.3-.5,1.76,1.76,0,0,1-.6-1.3,1.612,1.612,0,0,1,.6-1.3,1.656,1.656,0,0,1,1.3-.5h2V63.8a1.612,1.612,0,0,1,.6-1.3,1.9,1.9,0,0,1,3.2,1.3v4.6h7.6a1.612,1.612,0,0,1,1.3.6,1.76,1.76,0,0,1,.6,1.3,1.612,1.612,0,0,1-.6,1.3,1.656,1.656,0,0,1-1.3.5h-7.6V84.3a1.612,1.612,0,0,0,.6,1.3,2.246,2.246,0,0,0,1.4.6h3.7a1.928,1.928,0,0,0,2-1.6,1.9,1.9,0,0,1,1.9-1.6,2.168,2.168,0,0,1,1.4.5,1.741,1.741,0,0,1,.5,1.4,4.877,4.877,0,0,1-1.6,3.4A6.214,6.214,0,0,1,159.1,89.9Z"/>
    <path id="XMLID_25_" class="cls-1" d="M192.7,80.7v1.7a7.512,7.512,0,0,1-7.5,7.6H173.7V60.1h11.5a6.947,6.947,0,0,1,5.3,2.2,7.318,7.318,0,0,1,2.2,5.4v1.6a7.62,7.62,0,0,1-2.6,5.7A7.62,7.62,0,0,1,192.7,80.7Zm-3.9-11.5V67.7a4.049,4.049,0,0,0-1.1-2.7,3.693,3.693,0,0,0-2.7-1.1h-7.7V73H185a4.049,4.049,0,0,0,2.7-1.1A3.693,3.693,0,0,0,188.8,69.2Zm0,13.2V80.8a4.049,4.049,0,0,0-1.1-2.7A3.343,3.343,0,0,0,185,77h-7.6v9.2H185a3.757,3.757,0,0,0,3.8-3.8Z"/>
    <path id="XMLID_29_" class="cls-1" d="M220.4,75.4V80a1.612,1.612,0,0,1-.6,1.3,2.232,2.232,0,0,1-1.3.6H205.2V83a2.088,2.088,0,0,0,.8,1.6l1.1.9a2.7,2.7,0,0,0,1.7.7h9.7a1.612,1.612,0,0,1,1.3.6,1.76,1.76,0,0,1,.6,1.3,1.612,1.612,0,0,1-.6,1.3,1.76,1.76,0,0,1-1.3.6h-10a5.222,5.222,0,0,1-2.1-.4,5.65,5.65,0,0,1-1.6-.9l-1.7-1.5a4.2,4.2,0,0,1-1.3-1.8,4.061,4.061,0,0,1-.5-2.1V74.7a4.85,4.85,0,0,1,.6-2,7.844,7.844,0,0,1,1.4-2l1.6-1.2a5.546,5.546,0,0,1,3.4-1.3h5.3a5.7,5.7,0,0,1,3.8,1.7l1.4,1.3A5.359,5.359,0,0,1,220.4,75.4Zm-15.1-.3V78h11.5V75.4a1.865,1.865,0,0,0-.7-1.6l-1.1-1a2.473,2.473,0,0,0-1.5-.7h-4.7a2.452,2.452,0,0,0-1.6.6l-1.1.9A1.659,1.659,0,0,0,205.3,75.1Z"/>
    <path id="XMLID_32_" class="cls-1" d="M248.2,75.4V80a1.612,1.612,0,0,1-.6,1.3,2.232,2.232,0,0,1-1.3.6H233V83a2.088,2.088,0,0,0,.8,1.6l1.1.9a2.7,2.7,0,0,0,1.7.7h9.7a1.612,1.612,0,0,1,1.3.6,1.76,1.76,0,0,1,.6,1.3,1.612,1.612,0,0,1-.6,1.3,1.76,1.76,0,0,1-1.3.6h-10a5.222,5.222,0,0,1-2.1-.4,5.65,5.65,0,0,1-1.6-.9l-1.7-1.5a4.2,4.2,0,0,1-1.3-1.8,4.061,4.061,0,0,1-.5-2.1V74.7a4.85,4.85,0,0,1,.6-2,7.844,7.844,0,0,1,1.4-2l1.6-1.2a5.546,5.546,0,0,1,3.4-1.3h5.3a5.7,5.7,0,0,1,3.8,1.7l1.4,1.3A5.359,5.359,0,0,1,248.2,75.4ZM233,75.1V78h11.5V75.4a1.865,1.865,0,0,0-.7-1.6l-1.1-1a2.473,2.473,0,0,0-1.5-.7h-4.7a2.452,2.452,0,0,0-1.6.6l-1.1.9A1.9,1.9,0,0,0,233,75.1Z"/>
    <g id="XMLID_35_" transform="translate(19 -14)">
      <path id="XMLID_42_" class="cls-1" d="M125.7,14.8s14.7,1.2,18.7,8.3,4.3,10.3,4,15-2,12.2-7.8,21.7-3.5,5.5-3.5,5.5l-11.4-7-12.1-1.2-7.4-8.8-.8-17Z"/>
      <path id="XMLID_36_" d="M142.5,59.8v10c-4.9-2.8-9-5.4-13.4-7.6-2.3-1.1-4.9-2.2-7.4-2.2-13.8.1-23.4-10-22.4-23,.5-6.1-.7-12.3,3.2-17.8,4-5.7,9.2-9.1,16.2-9.2s14-.2,21,0a19.516,19.516,0,0,1,18.9,16.7,58.827,58.827,0,0,1,.4,13.9C158.1,50.2,153.3,55.5,142.5,59.8Zm12.2-16.6c-14.3-7.5-33.8-1.9-41.1,12.3h21.6c-1.4,2.1-2,3.1-2.8,4.2,2.1,1.2,3.9,2.1,6,3.3.2-2.7.4-4.7.5-6.7C146.7,55,152.3,51.3,154.7,43.2Zm-45.6-8.1c11.9-12.8,26.7-15.7,43.4-13-3.6-6.4-9.9-9.5-16.3-8.3C123.5,16.2,114.5,23.3,109.1,35.1Zm6,7.3c12.1-9.9,25.7-10.4,39.9-6.2.8-7.2.8-7.3-2.4-8.1A35.28,35.28,0,0,0,115.1,42.4ZM118,13.9c-8.8.7-14,6-14.9,15.6C107.9,24.5,113.3,18.8,118,13.9Z"/>
    </g>
  </g>
</svg>
